<svg fill="none" height="307" viewBox="0 0 586 307" width="586" xmlns="http://www.w3.org/2000/svg">
    <rect fill="#0898A0" height="307" width="586" />
    <path
        d="M214.162 175.015C211.879 175.015 209.828 174.507 208.01 173.493C206.191 172.478 204.817 171.251 203.887 169.814H203.57V174H196.91V128.585H203.887V141.334L203.57 145.901H203.887C204.817 144.421 206.191 143.174 208.01 142.159C209.828 141.144 211.879 140.637 214.162 140.637C217.08 140.637 219.723 141.377 222.091 142.857C224.459 144.337 226.319 146.387 227.672 149.009C229.068 151.589 229.766 154.527 229.766 157.826C229.766 161.124 229.068 164.084 227.672 166.706C226.319 169.285 224.459 171.315 222.091 172.795C219.723 174.275 217.08 175.015 214.162 175.015ZM213.147 168.609C214.839 168.609 216.424 168.165 217.904 167.277C219.384 166.389 220.568 165.12 221.456 163.471C222.344 161.822 222.788 159.94 222.788 157.826C222.788 155.711 222.344 153.851 221.456 152.244C220.568 150.595 219.384 149.326 217.904 148.438C216.424 147.55 214.839 147.106 213.147 147.106C211.456 147.106 209.87 147.55 208.39 148.438C206.952 149.326 205.79 150.595 204.902 152.244C204.014 153.851 203.57 155.711 203.57 157.826C203.57 159.94 204.014 161.822 204.902 163.471C205.79 165.12 206.952 166.389 208.39 167.277C209.87 168.165 211.456 168.609 213.147 168.609ZM247.607 175.015C243.674 175.015 240.672 173.852 238.6 171.526C236.57 169.158 235.555 165.881 235.555 161.695V141.651H242.533V160.743C242.533 163.365 243.146 165.331 244.372 166.642C245.641 167.953 247.29 168.609 249.319 168.609C250.969 168.609 252.427 168.186 253.696 167.34C254.965 166.452 255.937 165.289 256.614 163.851C257.29 162.414 257.629 160.87 257.629 159.221V141.651H264.606V174H258.009V169.814H257.629C256.741 171.336 255.366 172.583 253.506 173.556C251.645 174.529 249.679 175.015 247.607 175.015ZM284.215 175.015C280.493 175.015 277.449 174.211 275.081 172.605C272.713 170.955 271.043 168.862 270.07 166.325L276.286 163.598C277.047 165.289 278.104 166.579 279.457 167.467C280.853 168.355 282.439 168.799 284.215 168.799C285.948 168.799 287.407 168.503 288.591 167.911C289.775 167.277 290.367 166.346 290.367 165.12C290.367 163.936 289.86 163.006 288.845 162.329C287.83 161.653 286.265 161.061 284.151 160.553L280.282 159.602C277.703 158.967 275.567 157.847 273.876 156.24C272.184 154.633 271.339 152.603 271.339 150.151C271.339 148.248 271.888 146.578 272.988 145.14C274.129 143.702 275.652 142.603 277.555 141.842C279.457 141.038 281.529 140.637 283.771 140.637C286.773 140.637 289.416 141.25 291.699 142.476C293.983 143.66 295.632 145.394 296.647 147.677L290.557 150.341C289.331 147.846 287.09 146.599 283.834 146.599C282.269 146.599 280.959 146.916 279.901 147.55C278.844 148.185 278.316 149.009 278.316 150.024C278.316 150.997 278.717 151.8 279.521 152.434C280.324 153.026 281.508 153.534 283.073 153.957L287.83 155.162C291.001 155.965 293.391 157.191 294.997 158.841C296.647 160.447 297.471 162.435 297.471 164.803C297.471 166.833 296.879 168.63 295.695 170.194C294.553 171.717 292.968 172.901 290.938 173.746C288.908 174.592 286.667 175.015 284.215 175.015ZM307.888 174.381C306.535 174.381 305.372 173.915 304.4 172.985C303.469 172.013 303.004 170.85 303.004 169.497C303.004 168.143 303.469 167.002 304.4 166.071C305.372 165.141 306.535 164.676 307.888 164.676C309.241 164.676 310.383 165.141 311.313 166.071C312.286 167.002 312.772 168.143 312.772 169.497C312.772 170.85 312.286 172.013 311.313 172.985C310.383 173.915 309.241 174.381 307.888 174.381ZM324.356 136.958C323.045 136.958 321.924 136.514 320.994 135.626C320.106 134.695 319.662 133.575 319.662 132.264C319.662 130.953 320.106 129.854 320.994 128.966C321.924 128.035 323.045 127.57 324.356 127.57C325.667 127.57 326.766 128.035 327.654 128.966C328.584 129.854 329.05 130.953 329.05 132.264C329.05 133.575 328.584 134.695 327.654 135.626C326.766 136.514 325.667 136.958 324.356 136.958ZM320.867 141.651H327.844V174H320.867V141.651ZM351.376 175.015C348.12 175.015 345.203 174.275 342.623 172.795C340.044 171.273 338.035 169.201 336.598 166.579C335.16 163.957 334.441 161.039 334.441 157.826C334.441 154.612 335.16 151.694 336.598 149.073C338.035 146.451 340.044 144.4 342.623 142.92C345.203 141.398 348.12 140.637 351.376 140.637C354.632 140.637 357.55 141.398 360.13 142.92C362.709 144.442 364.718 146.514 366.155 149.136C367.593 151.758 368.312 154.654 368.312 157.826C368.312 161.039 367.593 163.957 366.155 166.579C364.718 169.201 362.709 171.273 360.13 172.795C357.55 174.275 354.632 175.015 351.376 175.015ZM351.376 168.609C353.152 168.609 354.802 168.186 356.324 167.34C357.846 166.452 359.051 165.205 359.939 163.598C360.87 161.949 361.335 160.025 361.335 157.826C361.335 155.627 360.87 153.724 359.939 152.117C359.051 150.51 357.846 149.284 356.324 148.438C354.802 147.55 353.152 147.106 351.376 147.106C349.6 147.106 347.951 147.55 346.429 148.438C344.907 149.284 343.68 150.51 342.75 152.117C341.862 153.724 341.418 155.627 341.418 157.826C341.418 160.025 341.862 161.949 342.75 163.598C343.68 165.205 344.907 166.452 346.429 167.34C347.951 168.186 349.6 168.609 351.376 168.609Z"
        fill="white" />
    <path
        d="M373.335 143.462H370.164V141.432H378.647V143.462H375.476V152.786H373.335V143.462ZM380.358 141.432H383.117L386.13 149.408H386.257L389.27 141.432H392.045V152.786H389.92V147.188L390.047 145.301H389.92L387.034 152.786H385.369L382.467 145.301H382.34L382.467 147.188V152.786H380.358V141.432Z"
        fill="white" />
    <path
        d="M373.335 143.462H373.6V143.197H373.335V143.462ZM370.164 143.462H369.9V143.726H370.164V143.462ZM370.164 141.432V141.168H369.9V141.432H370.164ZM378.647 141.432H378.912V141.168H378.647V141.432ZM378.647 143.462V143.726H378.912V143.462H378.647ZM375.476 143.462V143.197H375.212V143.462H375.476ZM375.476 152.786V153.05H375.74V152.786H375.476ZM373.335 152.786H373.071V153.05H373.335V152.786ZM373.335 143.197H370.164V143.726H373.335V143.197ZM370.428 143.462V141.432H369.9V143.462H370.428ZM370.164 141.696H378.647V141.168H370.164V141.696ZM378.383 141.432V143.462H378.912V141.432H378.383ZM378.647 143.197H375.476V143.726H378.647V143.197ZM375.212 143.462V152.786H375.74V143.462H375.212ZM375.476 152.521H373.335V153.05H375.476V152.521ZM373.6 152.786V143.462H373.071V152.786H373.6ZM380.358 141.432V141.168H380.094V141.432H380.358ZM383.117 141.432L383.365 141.339L383.3 141.168H383.117V141.432ZM386.13 149.408L385.883 149.502L385.948 149.672H386.13V149.408ZM386.257 149.408V149.672H386.44L386.504 149.502L386.257 149.408ZM389.27 141.432V141.168H389.087L389.023 141.339L389.27 141.432ZM392.045 141.432H392.309V141.168H392.045V141.432ZM392.045 152.786V153.05H392.309V152.786H392.045ZM389.92 152.786H389.656V153.05H389.92V152.786ZM389.92 147.188L389.656 147.17L389.656 147.179V147.188H389.92ZM390.047 145.301L390.311 145.319L390.33 145.037H390.047V145.301ZM389.92 145.301V145.037H389.739L389.674 145.206L389.92 145.301ZM387.034 152.786V153.05H387.216L387.281 152.881L387.034 152.786ZM385.369 152.786L385.123 152.881L385.188 153.05H385.369V152.786ZM382.467 145.301L382.714 145.206L382.648 145.037H382.467V145.301ZM382.34 145.301V145.037H382.058L382.077 145.319L382.34 145.301ZM382.467 147.188H382.732V147.179L382.731 147.17L382.467 147.188ZM382.467 152.786V153.05H382.732V152.786H382.467ZM380.358 152.786H380.094V153.05H380.358V152.786ZM380.358 141.696H383.117V141.168H380.358V141.696ZM382.87 141.525L385.883 149.502L386.378 149.315L383.365 141.339L382.87 141.525ZM386.13 149.672H386.257V149.144H386.13V149.672ZM386.504 149.502L389.517 141.525L389.023 141.339L386.01 149.315L386.504 149.502ZM389.27 141.696H392.045V141.168H389.27V141.696ZM391.781 141.432V152.786H392.309V141.432H391.781ZM392.045 152.521H389.92V153.05H392.045V152.521ZM390.184 152.786V147.188H389.656V152.786H390.184ZM390.184 147.206L390.311 145.319L389.783 145.283L389.656 147.17L390.184 147.206ZM390.047 145.037H389.92V145.565H390.047V145.037ZM389.674 145.206L386.788 152.691L387.281 152.881L390.167 145.396L389.674 145.206ZM387.034 152.521H385.369V153.05H387.034V152.521ZM385.616 152.69L382.714 145.206L382.221 145.397L385.123 152.881L385.616 152.69ZM382.467 145.037H382.34V145.565H382.467V145.037ZM382.077 145.319L382.204 147.206L382.731 147.17L382.604 145.283L382.077 145.319ZM382.203 147.188V152.786H382.732V147.188H382.203ZM382.467 152.521H380.358V153.05H382.467V152.521ZM380.623 152.786V141.432H380.094V152.786H380.623Z"
        fill="#0898A0" />
    <path
        d="M226.035 193V184.456H229.611C230.483 184.456 231.167 184.652 231.663 185.044C232.159 185.436 232.407 185.984 232.407 186.688C232.407 187.176 232.271 187.592 231.999 187.936C231.735 188.272 231.367 188.512 230.895 188.656V188.56C231.439 188.672 231.863 188.912 232.167 189.28C232.471 189.648 232.623 190.112 232.623 190.672C232.623 191.416 232.367 191.992 231.855 192.4C231.351 192.8 230.643 193 229.731 193H226.035ZM227.259 192.004H229.611C230.235 192.004 230.691 191.892 230.979 191.668C231.275 191.444 231.423 191.088 231.423 190.6C231.423 190.12 231.275 189.76 230.979 189.52C230.683 189.28 230.227 189.16 229.611 189.16H227.259V192.004ZM227.259 188.164H229.407C230.015 188.164 230.467 188.048 230.763 187.816C231.059 187.584 231.207 187.24 231.207 186.784C231.207 186.336 231.059 186.004 230.763 185.788C230.467 185.564 230.015 185.452 229.407 185.452H227.259V188.164ZM236.29 193.084C235.562 193.084 235.014 192.884 234.646 192.484C234.278 192.076 234.094 191.468 234.094 190.66V186.952H235.306V190.648C235.306 191.144 235.406 191.512 235.606 191.752C235.814 191.984 236.13 192.1 236.554 192.1C237.042 192.1 237.434 191.94 237.73 191.62C238.034 191.3 238.186 190.876 238.186 190.348V186.952H239.398V193H238.222V191.716L238.366 191.668C238.198 192.132 237.93 192.484 237.562 192.724C237.194 192.964 236.77 193.084 236.29 193.084ZM243.273 193.084C242.217 193.084 241.381 192.828 240.765 192.316L241.137 191.44C241.457 191.688 241.793 191.872 242.145 191.992C242.505 192.104 242.893 192.16 243.309 192.16C243.725 192.16 244.041 192.092 244.257 191.956C244.473 191.812 244.581 191.612 244.581 191.356C244.581 191.14 244.505 190.972 244.353 190.852C244.209 190.724 243.961 190.616 243.609 190.528L242.589 190.288C242.061 190.176 241.657 189.98 241.377 189.7C241.105 189.412 240.969 189.056 240.969 188.632C240.969 188.272 241.069 187.956 241.269 187.684C241.469 187.412 241.749 187.2 242.109 187.048C242.469 186.888 242.889 186.808 243.369 186.808C243.801 186.808 244.209 186.876 244.593 187.012C244.977 187.14 245.309 187.332 245.589 187.588L245.217 188.44C244.921 188.208 244.617 188.036 244.305 187.924C244.001 187.804 243.689 187.744 243.369 187.744C242.977 187.744 242.673 187.82 242.457 187.972C242.241 188.116 242.133 188.32 242.133 188.584C242.133 188.8 242.197 188.972 242.325 189.1C242.461 189.22 242.685 189.316 242.997 189.388L244.017 189.64C244.601 189.768 245.029 189.972 245.301 190.252C245.573 190.532 245.709 190.892 245.709 191.332C245.709 191.868 245.489 192.296 245.049 192.616C244.617 192.928 244.025 193.084 243.273 193.084ZM250.325 193V184.168H251.537V188.452L251.405 188.308C251.541 187.836 251.797 187.468 252.173 187.204C252.557 186.94 253.013 186.808 253.541 186.808C254.077 186.808 254.545 186.936 254.945 187.192C255.345 187.448 255.657 187.808 255.881 188.272C256.113 188.736 256.229 189.284 256.229 189.916C256.229 190.556 256.113 191.116 255.881 191.596C255.657 192.068 255.341 192.436 254.933 192.7C254.533 192.956 254.069 193.084 253.541 193.084C253.013 193.084 252.557 192.956 252.173 192.7C251.797 192.436 251.541 192.064 251.405 191.584L251.537 191.416V193H250.325ZM253.265 192.124C253.809 192.124 254.233 191.932 254.537 191.548C254.841 191.164 254.993 190.62 254.993 189.916C254.993 189.236 254.841 188.712 254.537 188.344C254.233 187.968 253.809 187.78 253.265 187.78C252.705 187.78 252.277 187.972 251.981 188.356C251.685 188.732 251.537 189.26 251.537 189.94C251.537 190.644 251.685 191.184 251.981 191.56C252.277 191.936 252.705 192.124 253.265 192.124ZM260.254 193.084C259.654 193.084 259.13 192.956 258.682 192.7C258.242 192.444 257.902 192.084 257.662 191.62C257.422 191.148 257.302 190.588 257.302 189.94C257.302 189.308 257.422 188.756 257.662 188.284C257.902 187.812 258.242 187.448 258.682 187.192C259.13 186.936 259.654 186.808 260.254 186.808C260.846 186.808 261.362 186.936 261.802 187.192C262.25 187.448 262.594 187.812 262.834 188.284C263.082 188.756 263.206 189.308 263.206 189.94C263.206 190.588 263.082 191.148 262.834 191.62C262.594 192.084 262.25 192.444 261.802 192.7C261.362 192.956 260.846 193.084 260.254 193.084ZM260.254 192.124C260.798 192.124 261.218 191.94 261.514 191.572C261.818 191.204 261.97 190.66 261.97 189.94C261.97 189.244 261.818 188.712 261.514 188.344C261.218 187.968 260.798 187.78 260.254 187.78C259.71 187.78 259.282 187.968 258.97 188.344C258.666 188.712 258.514 189.244 258.514 189.94C258.514 190.66 258.662 191.204 258.958 191.572C259.262 191.94 259.694 192.124 260.254 192.124ZM267.226 193.084C266.626 193.084 266.102 192.956 265.654 192.7C265.214 192.444 264.874 192.084 264.634 191.62C264.394 191.148 264.274 190.588 264.274 189.94C264.274 189.308 264.394 188.756 264.634 188.284C264.874 187.812 265.214 187.448 265.654 187.192C266.102 186.936 266.626 186.808 267.226 186.808C267.818 186.808 268.334 186.936 268.774 187.192C269.222 187.448 269.566 187.812 269.806 188.284C270.054 188.756 270.178 189.308 270.178 189.94C270.178 190.588 270.054 191.148 269.806 191.62C269.566 192.084 269.222 192.444 268.774 192.7C268.334 192.956 267.818 193.084 267.226 193.084ZM267.226 192.124C267.77 192.124 268.19 191.94 268.486 191.572C268.79 191.204 268.942 190.66 268.942 189.94C268.942 189.244 268.79 188.712 268.486 188.344C268.19 187.968 267.77 187.78 267.226 187.78C266.682 187.78 266.254 187.968 265.942 188.344C265.638 188.712 265.486 189.244 265.486 189.94C265.486 190.66 265.634 191.204 265.93 191.572C266.234 191.94 266.666 192.124 267.226 192.124ZM275.687 193L272.567 189.916L275.483 186.964H276.983L273.731 190.228L273.779 189.544L277.235 193H275.687ZM271.583 193V184.168H272.795V193H271.583ZM277.97 193V186.952H279.182V193H277.97ZM277.886 184.312H279.29V185.584H277.886V184.312ZM280.946 193V188.656C280.946 188.376 280.938 188.092 280.922 187.804C280.914 187.516 280.89 187.232 280.85 186.952H282.002L282.11 188.176L281.99 188.248C282.166 187.776 282.446 187.42 282.83 187.18C283.222 186.932 283.67 186.808 284.174 186.808C285.622 186.808 286.346 187.62 286.346 189.244V193H285.134V189.292C285.134 188.772 285.03 188.392 284.822 188.152C284.614 187.912 284.294 187.792 283.862 187.792C283.342 187.792 282.926 187.952 282.614 188.272C282.31 188.592 282.158 189.02 282.158 189.556V193H280.946ZM290.772 195.676C289.852 195.676 289.048 195.476 288.36 195.076L288.552 194.128C288.928 194.328 289.288 194.476 289.632 194.572C289.976 194.668 290.352 194.716 290.76 194.716C291.32 194.716 291.744 194.572 292.032 194.284C292.32 193.996 292.464 193.564 292.464 192.988V191.416L292.596 191.332C292.5 191.62 292.348 191.88 292.14 192.112C291.94 192.336 291.692 192.512 291.396 192.64C291.108 192.76 290.784 192.82 290.424 192.82C289.888 192.82 289.416 192.696 289.008 192.448C288.608 192.192 288.292 191.84 288.06 191.392C287.836 190.944 287.724 190.416 287.724 189.808C287.724 189.208 287.836 188.684 288.06 188.236C288.292 187.788 288.608 187.44 289.008 187.192C289.416 186.936 289.888 186.808 290.424 186.808C290.968 186.808 291.432 186.94 291.816 187.204C292.2 187.468 292.46 187.836 292.596 188.308L292.452 188.248V186.952H293.664V192.88C293.664 193.808 293.42 194.504 292.932 194.968C292.444 195.44 291.724 195.676 290.772 195.676ZM290.712 191.848C291.256 191.848 291.68 191.668 291.984 191.308C292.296 190.948 292.452 190.448 292.452 189.808C292.452 189.184 292.296 188.692 291.984 188.332C291.68 187.964 291.256 187.78 290.712 187.78C290.16 187.78 289.724 187.96 289.404 188.32C289.092 188.68 288.936 189.176 288.936 189.808C288.936 190.448 289.092 190.948 289.404 191.308C289.724 191.668 290.16 191.848 290.712 191.848ZM298.618 193V188.656C298.618 188.376 298.61 188.092 298.594 187.804C298.586 187.516 298.562 187.232 298.522 186.952H299.674L299.782 188.176L299.662 188.224C299.814 187.776 300.066 187.428 300.418 187.18C300.77 186.932 301.19 186.808 301.678 186.808C302.254 186.808 302.702 186.952 303.022 187.24C303.35 187.52 303.562 187.956 303.658 188.548L303.37 188.344C303.506 187.872 303.766 187.5 304.15 187.228C304.542 186.948 305.002 186.808 305.53 186.808C306.202 186.808 306.706 187.012 307.042 187.42C307.378 187.82 307.546 188.428 307.546 189.244V193H306.334V189.292C306.334 188.772 306.242 188.392 306.058 188.152C305.882 187.912 305.594 187.792 305.194 187.792C304.73 187.792 304.362 187.952 304.09 188.272C303.826 188.592 303.694 189.028 303.694 189.58V193H302.482V189.292C302.482 188.772 302.39 188.392 302.206 188.152C302.022 187.912 301.734 187.792 301.342 187.792C300.87 187.792 300.498 187.952 300.226 188.272C299.962 188.592 299.83 189.028 299.83 189.58V193H298.618ZM311.611 193.084C311.075 193.084 310.603 192.96 310.195 192.712C309.795 192.456 309.483 192.096 309.259 191.632C309.043 191.16 308.935 190.608 308.935 189.976C308.935 189.344 309.047 188.792 309.271 188.32C309.495 187.84 309.807 187.468 310.207 187.204C310.615 186.94 311.083 186.808 311.611 186.808C312.147 186.808 312.603 186.94 312.979 187.204C313.363 187.46 313.623 187.828 313.759 188.308L313.615 188.404V186.952H314.815V193H313.615V191.524L313.759 191.584C313.623 192.064 313.363 192.436 312.979 192.7C312.603 192.956 312.147 193.084 311.611 193.084ZM311.899 192.124C312.443 192.124 312.863 191.936 313.159 191.56C313.463 191.184 313.615 190.648 313.615 189.952C313.615 189.256 313.463 188.72 313.159 188.344C312.863 187.968 312.443 187.78 311.899 187.78C311.347 187.78 310.915 187.976 310.603 188.368C310.299 188.752 310.147 189.288 310.147 189.976C310.147 190.664 310.299 191.196 310.603 191.572C310.915 191.94 311.347 192.124 311.899 192.124ZM322.127 193H320.927V191.416L321.071 191.584C320.935 192.064 320.675 192.436 320.291 192.7C319.915 192.956 319.459 193.084 318.923 193.084C318.395 193.084 317.927 192.956 317.519 192.7C317.119 192.436 316.807 192.068 316.583 191.596C316.359 191.116 316.247 190.556 316.247 189.916C316.247 189.284 316.355 188.736 316.571 188.272C316.795 187.808 317.107 187.448 317.507 187.192C317.915 186.936 318.387 186.808 318.923 186.808C319.459 186.808 319.915 186.94 320.291 187.204C320.675 187.468 320.935 187.836 321.071 188.308L320.915 188.452V184.168H322.127V193ZM319.211 192.124C319.755 192.124 320.175 191.936 320.471 191.56C320.775 191.184 320.927 190.644 320.927 189.94C320.927 189.26 320.775 188.732 320.471 188.356C320.175 187.972 319.755 187.78 319.211 187.78C318.659 187.78 318.227 187.968 317.915 188.344C317.611 188.712 317.459 189.236 317.459 189.916C317.459 190.62 317.611 191.164 317.915 191.548C318.227 191.932 318.659 192.124 319.211 192.124ZM328.96 192.304C328.688 192.544 328.344 192.736 327.928 192.88C327.512 193.016 327.088 193.084 326.656 193.084C326.016 193.084 325.464 192.96 325 192.712C324.536 192.464 324.18 192.104 323.932 191.632C323.684 191.16 323.56 190.6 323.56 189.952C323.56 189.328 323.68 188.78 323.92 188.308C324.168 187.836 324.508 187.468 324.94 187.204C325.372 186.94 325.872 186.808 326.44 186.808C326.984 186.808 327.452 186.928 327.844 187.168C328.236 187.408 328.536 187.752 328.744 188.2C328.96 188.64 329.068 189.172 329.068 189.796V190H324.616L324.628 189.28H328.36L328.012 189.712C328.02 189.064 327.892 188.568 327.628 188.224C327.364 187.88 326.976 187.708 326.464 187.708C325.928 187.708 325.508 187.9 325.204 188.284C324.9 188.66 324.748 189.188 324.748 189.868C324.748 190.628 324.912 191.196 325.24 191.572C325.568 191.94 326.048 192.124 326.68 192.124C327.024 192.124 327.356 192.068 327.676 191.956C327.996 191.844 328.3 191.672 328.588 191.44L328.96 192.304ZM338.71 192.304C338.438 192.544 338.094 192.736 337.678 192.88C337.262 193.016 336.838 193.084 336.406 193.084C335.766 193.084 335.214 192.96 334.75 192.712C334.286 192.464 333.93 192.104 333.682 191.632C333.434 191.16 333.31 190.6 333.31 189.952C333.31 189.328 333.43 188.78 333.67 188.308C333.918 187.836 334.258 187.468 334.69 187.204C335.122 186.94 335.622 186.808 336.19 186.808C336.734 186.808 337.202 186.928 337.594 187.168C337.986 187.408 338.286 187.752 338.494 188.2C338.71 188.64 338.818 189.172 338.818 189.796V190H334.366L334.378 189.28H338.11L337.762 189.712C337.77 189.064 337.642 188.568 337.378 188.224C337.114 187.88 336.726 187.708 336.214 187.708C335.678 187.708 335.258 187.9 334.954 188.284C334.65 188.66 334.498 189.188 334.498 189.868C334.498 190.628 334.662 191.196 334.99 191.572C335.318 191.94 335.798 192.124 336.43 192.124C336.774 192.124 337.106 192.068 337.426 191.956C337.746 191.844 338.05 191.672 338.338 191.44L338.71 192.304ZM342.536 193.084C342 193.084 341.528 192.96 341.12 192.712C340.72 192.456 340.408 192.096 340.184 191.632C339.968 191.16 339.86 190.608 339.86 189.976C339.86 189.344 339.972 188.792 340.196 188.32C340.42 187.84 340.732 187.468 341.132 187.204C341.54 186.94 342.008 186.808 342.536 186.808C343.072 186.808 343.528 186.94 343.904 187.204C344.288 187.46 344.548 187.828 344.684 188.308L344.54 188.404V186.952H345.74V193H344.54V191.524L344.684 191.584C344.548 192.064 344.288 192.436 343.904 192.7C343.528 192.956 343.072 193.084 342.536 193.084ZM342.824 192.124C343.368 192.124 343.788 191.936 344.084 191.56C344.388 191.184 344.54 190.648 344.54 189.952C344.54 189.256 344.388 188.72 344.084 188.344C343.788 187.968 343.368 187.78 342.824 187.78C342.272 187.78 341.84 187.976 341.528 188.368C341.224 188.752 341.072 189.288 341.072 189.976C341.072 190.664 341.224 191.196 341.528 191.572C341.84 191.94 342.272 192.124 342.824 192.124ZM349.633 193.084C348.577 193.084 347.741 192.828 347.125 192.316L347.497 191.44C347.817 191.688 348.153 191.872 348.505 191.992C348.865 192.104 349.253 192.16 349.669 192.16C350.085 192.16 350.401 192.092 350.617 191.956C350.833 191.812 350.941 191.612 350.941 191.356C350.941 191.14 350.865 190.972 350.713 190.852C350.569 190.724 350.321 190.616 349.969 190.528L348.949 190.288C348.421 190.176 348.017 189.98 347.737 189.7C347.465 189.412 347.329 189.056 347.329 188.632C347.329 188.272 347.429 187.956 347.629 187.684C347.829 187.412 348.109 187.2 348.469 187.048C348.829 186.888 349.249 186.808 349.729 186.808C350.161 186.808 350.569 186.876 350.953 187.012C351.337 187.14 351.669 187.332 351.949 187.588L351.577 188.44C351.281 188.208 350.977 188.036 350.665 187.924C350.361 187.804 350.049 187.744 349.729 187.744C349.337 187.744 349.033 187.82 348.817 187.972C348.601 188.116 348.493 188.32 348.493 188.584C348.493 188.8 348.557 188.972 348.685 189.1C348.821 189.22 349.045 189.316 349.357 189.388L350.377 189.64C350.961 189.768 351.389 189.972 351.661 190.252C351.933 190.532 352.069 190.892 352.069 191.332C352.069 191.868 351.849 192.296 351.409 192.616C350.977 192.928 350.385 193.084 349.633 193.084ZM353.176 195.724L352.912 194.788C353.28 194.708 353.588 194.608 353.836 194.488C354.092 194.376 354.304 194.232 354.472 194.056C354.64 193.88 354.784 193.652 354.904 193.372L355.312 192.436L355.6 192.016L357.688 186.952H358.9L356.08 193.48C355.856 193.992 355.6 194.396 355.312 194.692C355.032 194.996 354.712 195.228 354.352 195.388C353.992 195.548 353.6 195.66 353.176 195.724ZM355.336 193.348L352.588 186.952H353.848L355.912 192.016L355.336 193.348Z"
        fill="white" />
</svg>
