<svg fill="none" height="28" viewBox="0 0 28 28" width="28" xmlns="http://www.w3.org/2000/svg">
    <path
        d="M24.3015 9.34519L16.6599 3.23185C15.1665 2.04185 12.8332 2.03018 11.3515 3.22018L3.70988 9.34519C2.61321 10.2202 1.94821 11.9702 2.18154 13.3469L3.65154 22.1435C3.98988 24.1152 5.82154 25.6669 7.81654 25.6669H20.1832C22.1549 25.6669 24.0215 24.0802 24.3599 22.1319L25.8299 13.3352C26.0399 11.9702 25.3749 10.2202 24.3015 9.34519Z"
        fill="#969696" opacity="0.4" />
    <path
        d="M14 21.875C13.5217 21.875 13.125 21.4783 13.125 21V17.5C13.125 17.0217 13.5217 16.625 14 16.625C14.4783 16.625 14.875 17.0217 14.875 17.5V21C14.875 21.4783 14.4783 21.875 14 21.875Z"
        fill="#969696" />
</svg>
