<svg fill="none" height="48" viewBox="0 0 48 48" width="48" xmlns="http://www.w3.org/2000/svg">
    <rect fill="#E6F5F6" height="48" rx="24" width="48" />
    <path
        d="M34.8682 21.2734V32.1825C34.8682 36.2734 33.5046 37.6371 29.4137 37.6371H18.5046C14.4137 37.6371 13.05 36.2734 13.05 32.1825V21.2734H34.8682Z"
        fill="#0898A0" opacity="0.4" />
    <path
        d="M36.9547 17.1824V18.546C36.9547 20.046 36.232 21.2733 34.2275 21.2733H13.7729C11.6866 21.2733 11.0457 20.046 11.0457 18.546V17.1824C11.0457 15.6824 11.6866 14.4551 13.7729 14.4551H34.2275C36.232 14.4551 36.9547 15.6824 36.9547 17.1824Z"
        fill="#0898A0" />
    <path
        d="M23.5091 14.4547H15.9818C15.5182 13.9501 15.5318 13.1729 16.0227 12.682L17.9591 10.7456C18.4637 10.2411 19.2955 10.2411 19.8 10.7456L23.5091 14.4547Z"
        fill="#0898A0" opacity="0.4" />
    <path
        d="M32.0046 14.4547H24.4773L28.1864 10.7456C28.6909 10.2411 29.5227 10.2411 30.0273 10.7456L31.9637 12.682C32.4546 13.1729 32.4682 13.9501 32.0046 14.4547Z"
        fill="#0898A0" opacity="0.4" />
    <path
        d="M19.8276 21.2734V28.2825C19.8276 29.3734 21.0276 30.0143 21.9413 29.428L23.2231 28.5825C23.6867 28.2825 24.2731 28.2825 24.7231 28.5825L25.9367 29.4007C26.8367 30.0007 28.0504 29.3598 28.0504 28.2689V21.2734H19.8276Z"
        fill="#0898A0" opacity="0.6" />
</svg>
