<svg fill="none" height="204" viewBox="0 0 276 204" width="276" xmlns="http://www.w3.org/2000/svg">
    <g clip-path="url(#clip0)">
        <path d="M61.276 56.2936L9.79663 90.8516L60.5036 166.921L111.983 132.363L61.276 56.2936Z"
            fill="#F5F5F5" />
        <path d="M85.3806 128.765L84.7933 132.393L59.2007 128.691L59.788 125.063L85.3806 128.765Z"
            fill="#E0E0E0" />
        <path d="M72.4925 115.823L76.163 116.352L72.0933 141.639L68.4182 141.105L72.4925 115.823Z"
            fill="#E0E0E0" />
        <path
            d="M48.9418 83.6843C48.9785 83.7349 43.8214 87.2664 37.4209 91.5577C31.0205 95.8489 25.8037 99.293 25.767 99.2377C25.7303 99.1825 30.8874 95.6555 37.2879 91.3597C43.6883 87.0638 48.8821 83.629 48.9418 83.6843Z"
            fill="#E0E0E0" />
        <path
            d="M67.8542 78.914C67.8909 78.9692 59.311 84.7891 48.6941 91.9166C38.0771 99.0442 29.4238 104.777 29.3963 104.726C29.3688 104.675 37.9303 98.8462 48.561 91.7186C59.1917 84.5911 67.8175 78.8587 67.8542 78.914Z"
            fill="#E0E0E0" />
        <path
            d="M71.6483 84.6049C71.6851 84.6601 63.1052 90.4846 52.4882 97.6122C41.8713 104.74 33.218 110.472 33.1905 110.417C33.163 110.362 41.7336 104.542 52.3552 97.4096C62.9767 90.2774 71.6116 84.5496 71.6483 84.6049Z"
            fill="#E0E0E0" />
        <path
            d="M75.4428 90.3007C75.4795 90.3559 66.8996 96.1804 56.2827 103.303C45.6657 110.426 37.0125 116.168 37.0125 116.113C37.0125 116.057 45.551 110.233 56.1726 103.105C66.7941 95.9778 75.4061 90.2454 75.4428 90.3007Z"
            fill="#E0E0E0" />
        <path
            d="M79.2236 95.996C79.2603 96.0513 70.6805 101.871 60.0635 108.999C49.4465 116.126 40.7933 121.859 40.7703 121.803C40.7474 121.748 49.3226 115.928 59.9534 108.801C70.5841 101.673 79.2236 95.9407 79.2236 95.996Z"
            fill="#E0E0E0" />
        <path d="M233.417 107.265L190.183 136.288L232.767 200.173L276.001 171.15L233.417 107.265Z"
            fill="#F5F5F5" />
        <path d="M253.665 168.141L253.174 171.189L231.678 168.081L232.169 165.033L253.665 168.141Z"
            fill="#E0E0E0" />
        <path d="M242.837 157.271L245.924 157.717L242.502 178.952L239.418 178.506L242.837 157.271Z"
            fill="#E0E0E0" />
        <path
            d="M223.043 130.303C223.08 130.359 218.753 133.328 213.376 136.934C207.999 140.539 203.613 143.421 203.576 143.38C203.539 143.338 207.87 140.359 213.243 136.749C218.616 133.14 223.007 130.225 223.043 130.303Z"
            fill="#E0E0E0" />
        <path
            d="M238.942 126.274C238.978 126.329 231.779 131.228 222.883 137.209C213.987 143.19 206.705 148.006 206.669 147.951C206.632 147.896 213.831 142.997 222.727 137.011C231.623 131.026 238.891 126.219 238.942 126.274Z"
            fill="#E0E0E0" />
        <path
            d="M242.13 131.054C242.167 131.109 234.968 136.008 226.072 141.994C217.175 147.979 209.894 152.786 209.857 152.731C209.821 152.676 216.996 147.8 225.916 141.814C234.835 135.828 242.103 131.003 242.13 131.054Z"
            fill="#E0E0E0" />
        <path
            d="M245.314 135.828C245.351 135.883 238.148 140.782 229.256 146.768C220.364 152.754 213.078 157.56 213.041 157.505C213.004 157.45 220.203 152.556 229.1 146.565C237.996 140.575 245.282 135.782 245.314 135.828Z"
            fill="#E0E0E0" />
        <path
            d="M248.526 140.621C248.563 140.676 241.364 145.571 232.468 151.556C223.571 157.542 216.29 162.349 216.253 162.298C216.216 162.248 223.415 157.344 232.312 151.358C241.208 145.373 248.466 140.566 248.526 140.621Z"
            fill="#E0E0E0" />
        <path d="M165.013 59.0916L117.839 33.7715L80.6872 103.479L127.861 128.799L165.013 59.0916Z"
            fill="#F5F5F5" />
        <path d="M119.792 106.991L116.8 108.018L109.202 86.944L112.194 85.9126L119.792 106.991Z"
            fill="#E0E0E0" />
        <path d="M124.38 91.8706L125.472 94.8957L104.614 102.065L103.522 99.0396L124.38 91.8706Z"
            fill="#E0E0E0" />
        <path
            d="M139.2 60.777C139.163 60.8461 134.382 58.3506 128.514 55.2058C122.646 52.061 117.924 49.4503 117.961 49.3813C117.998 49.3122 122.783 51.8078 128.652 54.9525C134.52 58.0973 139.236 60.7034 139.2 60.777Z"
            fill="#E0E0E0" />
        <path
            d="M150.523 73.3154C150.487 73.3844 142.567 69.2037 132.836 63.9824C123.104 58.7611 115.25 54.4698 115.286 54.4007C115.323 54.3317 123.238 58.5078 132.969 63.7337C142.7 68.9597 150.56 73.2463 150.523 73.3154Z"
            fill="#E0E0E0" />
        <path
            d="M147.743 78.5322C147.706 78.6013 139.787 74.4251 130.056 69.2038C120.324 63.9825 112.469 59.6866 112.506 59.6175C112.543 59.5485 120.457 63.7292 130.189 68.9506C139.92 74.1719 147.78 78.4631 147.743 78.5322Z"
            fill="#E0E0E0" />
        <path
            d="M144.962 83.7482C144.926 83.8172 137.007 79.6411 127.275 74.4198C117.544 69.1984 109.689 64.921 109.725 64.8381C109.762 64.7552 117.677 68.9452 127.408 74.1665C137.14 79.3878 144.999 83.6791 144.962 83.7482Z"
            fill="#E0E0E0" />
        <path
            d="M142.182 88.9656C142.145 89.0347 134.226 84.8585 124.495 79.6372C114.763 74.4159 106.904 70.1246 106.945 70.0555C106.986 69.9865 114.896 74.1626 124.628 79.3839C134.359 84.6053 142.219 88.8965 142.182 88.9656Z"
            fill="#E0E0E0" />
        <path d="M142.425 0H141.241V20.2499H142.425V0Z" fill="black" opacity="0.2" />
        <path
            d="M114.199 44.7498H169.468C169.468 44.7498 164.366 20.2593 141.416 20.2593C121.003 20.2593 114.199 44.7498 114.199 44.7498Z"
            fill="#0898A0" />
        <path d="M142.425 0H141.242V20.2499H142.425V0Z" fill="#0898A0" />
        <path
            d="M264.892 202.513C264.892 202.578 205.59 202.633 132.451 202.633C59.311 202.633 0 202.592 0 202.513C0 202.435 59.2926 202.394 132.451 202.394C205.609 202.394 264.892 202.444 264.892 202.513Z"
            fill="#263238" />
        <path
            d="M14.6636 173.676C15.4393 173.732 16.1958 173.945 16.8879 174.301C17.58 174.657 18.1936 175.149 18.6919 175.748C19.6829 176.953 20.3846 178.371 20.7428 179.892C21.5182 182.802 21.0411 186.241 20.2152 189.137C17.0769 188.009 15.1361 184.648 14.2506 182.88C12.8742 180.09 12.0529 174.196 14.6498 173.671"
            fill="#0898A0" />
        <path
            d="M24.7346 192.669C24.2633 191.935 23.9938 191.09 23.9535 190.218C23.9132 189.346 24.1036 188.479 24.5052 187.705C24.9193 186.939 25.4816 186.262 26.159 185.716C26.8365 185.17 27.6157 184.765 28.451 184.524C29.2172 184.284 30.1073 184.188 30.7726 184.634C31.0725 184.862 31.306 185.166 31.4489 185.515C31.5917 185.864 31.6386 186.245 31.5847 186.619C31.4642 187.367 31.1475 188.069 30.667 188.654C29.1392 190.73 27.2856 192.457 24.7024 192.669"
            fill="#0898A0" />
        <path
            d="M25.0833 202.398C25.0152 202.202 24.9675 202 24.9411 201.795C24.8585 201.362 24.7484 200.805 24.6153 200.137C24.2035 198.309 24.0888 196.426 24.2758 194.561C24.4921 192.687 25.2033 190.905 26.3359 189.4C26.6819 188.95 27.0809 188.543 27.5242 188.189C27.6446 188.093 27.7702 188.004 27.9004 187.922C27.9418 187.887 27.9882 187.859 28.0381 187.839C27.4577 188.336 26.9275 188.89 26.4552 189.492C25.3823 190.999 24.7068 192.754 24.4914 194.593C24.1978 196.739 24.5602 198.705 24.7713 200.119C24.8814 200.823 24.9732 201.394 25.0236 201.79C25.0598 201.991 25.0797 202.194 25.0833 202.398Z"
            fill="#263238" />
        <path
            d="M15.6731 178.109C15.7255 178.182 15.7686 178.261 15.8016 178.344C15.8841 178.528 15.9943 178.759 16.1227 179.049C16.4026 179.661 16.7926 180.55 17.2652 181.65C18.2103 183.856 19.4767 186.922 20.7981 190.339C22.1194 193.755 23.2435 196.872 24.0098 199.142C24.4043 200.275 24.7117 201.196 24.9274 201.836C25.0237 202.139 25.0971 202.383 25.1568 202.572C25.1895 202.657 25.2126 202.745 25.2256 202.835C25.1791 202.757 25.1421 202.673 25.1155 202.586C25.0467 202.402 24.9595 202.162 24.8448 201.863L23.8767 199.193C23.0554 196.941 21.9084 193.829 20.5916 190.417C19.2748 187.005 18.0268 183.929 17.1184 181.71C16.6595 180.619 16.3063 179.73 16.0447 179.081C15.9254 178.786 15.8291 178.551 15.7557 178.363C15.7212 178.281 15.6936 178.196 15.6731 178.109Z"
            fill="#263238" />
        <path
            d="M21.3532 195.961C20.4091 194.383 19.1045 193.054 17.5472 192.083C15.9898 191.112 14.2245 190.527 12.3972 190.376C11.4795 190.311 10.3509 190.468 9.93792 191.297C9.52499 192.125 10.0756 193.138 10.7087 193.811C12.054 195.223 13.7858 196.204 15.6858 196.63C17.5858 197.056 19.569 196.908 21.3853 196.205"
            fill="#0898A0" />
        <path
            d="M13.8103 192.871C14.0048 192.862 14.1998 192.869 14.393 192.894C14.6192 192.907 14.8445 192.933 15.0675 192.973C15.329 193.023 15.6364 193.051 15.9576 193.143C16.3166 193.219 16.6705 193.318 17.0174 193.438C17.4193 193.567 17.8131 193.721 18.1966 193.898C19.0786 194.295 19.9129 194.79 20.6834 195.376C21.4449 195.975 22.1347 196.661 22.7389 197.42C22.9998 197.751 23.2403 198.097 23.4592 198.456C23.657 198.767 23.8378 199.088 24.0006 199.419C24.1384 199.688 24.261 199.964 24.3677 200.247C24.4596 200.457 24.5378 200.672 24.6016 200.892C24.6696 201.076 24.7203 201.265 24.7531 201.458C24.7026 201.458 24.4824 200.666 23.863 199.488C23.6943 199.171 23.509 198.864 23.3078 198.567C23.0842 198.218 22.8422 197.881 22.5829 197.558C21.3828 196.07 19.8524 194.884 18.114 194.096C17.7148 193.921 17.334 193.755 16.9624 193.636C16.6212 193.511 16.2735 193.405 15.9209 193.318C14.6362 192.963 13.8057 192.922 13.8103 192.871Z"
            fill="#263238" />
        <path
            d="M222.08 48.5666C220.731 48.8751 220.075 50.436 219.947 51.8173C219.818 53.1986 219.993 54.6627 219.415 55.9243C218.763 57.3425 217.208 58.3923 217.157 59.9531C217.125 60.9062 217.69 61.7949 217.662 62.7572C217.616 64.3227 216.029 65.5198 215.941 67.0668C215.882 68.1949 216.63 69.2723 216.451 70.3866C216.313 71.2522 215.639 71.9336 215.354 72.7624C214.79 74.42 215.923 76.2387 217.396 77.1688C218.221 77.6894 219.149 78.0229 220.116 78.146C221.083 78.2691 222.065 78.1789 222.994 77.8816C223.922 77.5843 224.775 77.0871 225.492 76.4248C226.209 75.7624 226.774 74.951 227.146 74.047C227.962 72.0579 227.783 69.8156 227.605 67.6746C227.054 60.9952 226.644 54.3067 226.375 47.6089"
            fill="#263238" />
        <path
            d="M218.162 72.1313C218.44 71.9582 218.656 71.7022 218.781 71.3992C218.914 71.0389 218.967 70.6541 218.938 70.2711C218.887 69.7635 218.775 69.264 218.603 68.7839C218.383 68.1806 218.302 67.5354 218.364 66.8962C218.479 66.1779 218.993 65.5885 219.456 65.0084C219.705 64.7245 219.914 64.4067 220.075 64.0645C220.237 63.7184 220.263 63.324 220.149 62.9595C219.91 62.2089 219.176 61.6564 218.841 60.7862C218.684 60.3554 218.658 59.8872 218.768 59.4417C218.872 59.0241 219.026 58.6205 219.227 58.24C219.614 57.5546 219.922 56.827 220.144 56.0714C220.465 54.6118 220.314 53.2167 220.534 52.0702C220.656 51.1519 221.062 50.2953 221.695 49.6207C221.874 49.439 222.078 49.2839 222.301 49.1602C222.377 49.1201 222.459 49.0907 222.544 49.0728C222.256 49.2316 221.992 49.43 221.759 49.6621C221.173 50.3435 220.804 51.1854 220.699 52.0794C220.619 52.6901 220.576 53.3051 220.571 53.9211C220.569 54.6461 220.499 55.3692 220.36 56.0806C220.141 56.8536 219.833 57.5984 219.442 58.2999C219.098 59.0227 218.782 59.8699 219.084 60.6619C219.387 61.4538 220.117 62.0017 220.397 62.8489C220.523 63.2675 220.492 63.718 220.309 64.1151C220.131 64.4918 219.899 64.8406 219.621 65.1511C219.162 65.7313 218.662 66.2838 218.552 66.9284C218.488 67.5398 218.56 68.1579 218.763 68.7379C218.927 69.2328 219.029 69.7463 219.066 70.2665C219.089 70.6672 219.018 71.0676 218.86 71.436C218.761 71.667 218.602 71.8673 218.401 72.0162C218.329 72.0689 218.248 72.108 218.162 72.1313Z"
            fill="#455A64" />
        <path
            d="M214.574 83.0483L210.445 95.0196L193.175 95.9405L190.293 102.387L208.325 104.228C209.177 104.579 210.091 104.753 211.012 104.74C211.932 104.726 212.841 104.526 213.682 104.15C214.524 103.774 215.28 103.231 215.907 102.554C216.533 101.877 217.016 101.079 217.327 100.209L222.14 86.7272L214.574 83.0483Z"
            fill="#B78876" />
        <path
            d="M250.275 196.007C250.275 196.007 237.62 155.663 237.35 154.356C237.107 153.168 241.938 124.137 242.553 116.6L225.453 117.24V117.41L218.185 117.816L224.691 200.289H232.56L231.78 172.916C236.634 185.988 243.59 199.313 243.59 199.313L250.275 196.007Z"
            fill="#B78876" />
        <path
            d="M232.101 182.737C232.101 182.488 232.004 173.565 232.004 173.565C231.908 174.099 228.99 165.821 229.059 165.319C229.096 165.056 232.101 182.737 232.101 182.737Z"
            fill="#A36957" />
        <path
            d="M228.728 161.396C228.688 161.561 228.671 161.73 228.678 161.898C228.653 162.358 228.653 162.82 228.678 163.28C228.678 163.57 228.719 163.883 228.756 164.224C228.793 164.564 228.843 164.923 228.921 165.296C229.084 166.111 229.3 166.914 229.568 167.7C230.137 169.371 230.77 170.831 231.215 171.89C231.426 172.35 231.61 172.788 231.766 173.138C231.822 173.3 231.899 173.455 231.995 173.598C231.971 173.439 231.924 173.284 231.858 173.138C231.752 172.834 231.591 172.396 231.399 171.858C230.995 170.78 230.389 169.307 229.825 167.654C229.558 166.879 229.339 166.089 229.169 165.287C229.086 164.919 229.031 164.564 228.981 164.233C228.93 163.901 228.894 163.588 228.871 163.312C228.816 162.741 228.793 162.281 228.779 161.958C228.788 161.77 228.771 161.581 228.728 161.396Z"
            fill="#A36957" />
        <path
            d="M224.544 200.709V199.967L232.605 199.613L232.628 202.675L232.133 202.707C229.917 202.836 220.869 203.213 219.392 202.767C217.735 202.27 224.544 200.709 224.544 200.709Z"
            fill="#366F90" />
        <path
            d="M232.734 202.49C232.688 202.493 232.642 202.493 232.596 202.49L232.202 202.518L230.743 202.582C229.513 202.633 227.811 202.679 225.934 202.689C224.058 202.698 222.351 202.666 221.117 202.629L219.662 202.568H219.263H219.125C219.171 202.565 219.217 202.565 219.263 202.568H219.662L221.121 202.596C222.351 202.596 224.053 202.633 225.93 202.624C227.806 202.615 229.513 202.582 230.743 202.55L232.202 202.513H232.734V202.49Z"
            fill="#263238" />
        <path
            d="M221.915 202.747C221.848 202.507 221.756 202.274 221.64 202.052C221.495 201.848 221.327 201.661 221.14 201.495C221.39 201.585 221.598 201.766 221.722 202.002C221.874 202.219 221.942 202.484 221.915 202.747Z"
            fill="#263238" />
        <path
            d="M224.292 201.537C224.292 201.537 224.159 201.413 224.039 201.228C223.92 201.044 223.846 200.883 223.869 200.869C223.892 200.855 224.002 200.989 224.122 201.173C224.241 201.357 224.315 201.523 224.292 201.537Z"
            fill="#263238" />
        <path
            d="M224.943 201.21C224.943 201.233 224.797 201.145 224.659 201.021C224.521 200.897 224.42 200.782 224.439 200.763C224.457 200.745 224.585 200.828 224.723 200.952C224.861 201.076 224.962 201.169 224.943 201.21Z"
            fill="#263238" />
        <path
            d="M225.351 200.428C225.216 200.477 225.072 200.496 224.929 200.483C224.789 200.502 224.646 200.488 224.512 200.441C224.645 200.392 224.788 200.373 224.929 200.386C225.071 200.366 225.216 200.381 225.351 200.428Z"
            fill="#263238" />
        <path
            d="M225.489 199.893C225.352 199.983 225.193 200.031 225.03 200.032C224.874 200.053 224.716 200.031 224.572 199.967C224.723 199.942 224.877 199.929 225.03 199.93C225.182 199.903 225.335 199.891 225.489 199.893Z"
            fill="#263238" />
        <path
            d="M224.021 200.832C223.85 200.865 223.674 200.865 223.503 200.832C223.317 200.81 223.135 200.77 222.957 200.713C222.847 200.682 222.741 200.639 222.64 200.584C222.579 200.548 222.534 200.49 222.512 200.423C222.503 200.384 222.506 200.344 222.52 200.307C222.534 200.271 222.558 200.239 222.59 200.215C222.717 200.154 222.856 200.121 222.997 200.12C223.138 200.118 223.278 200.149 223.406 200.208C223.534 200.267 223.648 200.355 223.738 200.464C223.829 200.572 223.894 200.7 223.93 200.837C223.939 200.883 223.939 200.93 223.93 200.975C223.878 200.809 223.797 200.653 223.691 200.515C223.569 200.377 223.409 200.278 223.232 200.229C223.029 200.163 222.808 200.18 222.617 200.275C222.539 200.335 222.571 200.432 222.659 200.487C222.752 200.538 222.851 200.58 222.952 200.611C223.125 200.668 223.301 200.713 223.48 200.745C223.824 200.819 224.021 200.819 224.021 200.832Z"
            fill="#263238" />
        <path
            d="M223.888 200.86C223.821 200.753 223.798 200.624 223.824 200.501C223.84 200.365 223.889 200.236 223.966 200.123C224.009 200.046 224.071 199.981 224.145 199.935C224.22 199.888 224.305 199.861 224.393 199.856C224.445 199.868 224.49 199.9 224.52 199.944C224.55 199.988 224.562 200.042 224.553 200.095C224.542 200.178 224.512 200.256 224.466 200.326C224.396 200.44 224.315 200.546 224.223 200.643C224.143 200.735 224.042 200.806 223.929 200.851C223.929 200.851 224.03 200.758 224.172 200.593C224.255 200.498 224.327 200.394 224.388 200.284C224.457 200.174 224.507 199.976 224.388 199.953C224.269 199.93 224.131 200.072 224.053 200.174C223.98 200.274 223.93 200.388 223.906 200.51C223.888 200.625 223.881 200.743 223.888 200.86Z"
            fill="#263238" />
        <path
            d="M232.564 200.289C232.564 200.289 232.335 200.289 231.972 200.312C231.5 200.369 231.054 200.557 230.683 200.856C230.312 201.155 230.032 201.552 229.875 202.002C229.756 202.347 229.747 202.582 229.729 202.577C229.71 202.573 229.729 202.518 229.729 202.416C229.74 202.268 229.768 202.121 229.811 201.979C229.957 201.508 230.238 201.09 230.619 200.777C231.004 200.47 231.472 200.286 231.963 200.248C232.115 200.229 232.269 200.229 232.422 200.248C232.471 200.255 232.519 200.269 232.564 200.289Z"
            fill="#263238" />
        <path
            d="M228.705 201.845C228.321 201.936 227.926 201.975 227.531 201.961C227.138 201.981 226.744 201.947 226.361 201.859C226.361 201.832 226.884 201.859 227.531 201.859C228.178 201.859 228.701 201.818 228.705 201.845Z"
            fill="#263238" />
        <path
            d="M230.275 201.832C230.275 201.832 230.233 201.942 230.178 202.062C230.123 202.181 230.096 202.292 230.068 202.287C230.041 202.283 230.027 202.163 230.091 202.02C230.155 201.878 230.256 201.808 230.275 201.832Z"
            fill="#263238" />
        <path
            d="M230.866 201.09C230.866 201.09 230.834 201.191 230.752 201.274C230.669 201.357 230.587 201.412 230.564 201.394C230.541 201.375 230.596 201.293 230.678 201.205C230.761 201.118 230.843 201.067 230.866 201.09Z"
            fill="#263238" />
        <path
            d="M231.711 200.749C231.711 200.777 231.601 200.777 231.481 200.818C231.362 200.86 231.279 200.924 231.257 200.906C231.234 200.887 231.302 200.777 231.449 200.726C231.596 200.676 231.72 200.722 231.711 200.749Z"
            fill="#263238" />
        <path
            d="M232.312 200.584C232.312 200.611 232.28 200.653 232.211 200.676C232.142 200.699 232.082 200.704 232.073 200.676C232.064 200.648 232.11 200.607 232.174 200.584C232.238 200.561 232.303 200.561 232.312 200.584Z"
            fill="#263238" />
        <path
            d="M243.429 199.994L243.126 199.317L250.334 195.685L251.605 198.447L251.146 198.682C249.178 199.709 241.08 203.77 239.547 203.972C237.854 204.216 243.429 199.994 243.429 199.994Z"
            fill="#366F90" />
        <path
            d="M251.633 198.25L251.513 198.323L251.16 198.507L249.857 199.17C248.756 199.718 247.223 200.46 245.512 201.242C243.801 202.025 242.231 202.693 241.094 203.167L239.74 203.715L239.373 203.858C239.331 203.877 239.286 203.891 239.24 203.899L239.364 203.839L239.726 203.678L241.066 203.103C242.199 202.614 243.759 201.933 245.471 201.15C247.182 200.368 248.719 199.64 249.829 199.106L251.142 198.475L251.504 198.305L251.633 198.25Z"
            fill="#263238" />
        <path
            d="M241.883 202.931C241.724 202.737 241.544 202.561 241.346 202.407C241.131 202.279 240.901 202.177 240.662 202.103C240.926 202.099 241.184 202.177 241.402 202.325C241.62 202.473 241.788 202.685 241.883 202.931Z"
            fill="#263238" />
        <path
            d="M243.539 200.85C243.539 200.85 243.365 200.795 243.181 200.675C242.998 200.556 242.865 200.441 242.878 200.418C242.892 200.395 243.053 200.473 243.236 200.593C243.42 200.712 243.553 200.827 243.539 200.85Z"
            fill="#263238" />
        <path
            d="M243.989 200.289C243.989 200.312 243.833 200.289 243.654 200.234C243.475 200.178 243.342 200.109 243.346 200.082C243.462 200.071 243.579 200.09 243.686 200.137C243.86 200.178 243.998 200.243 243.989 200.289Z"
            fill="#263238" />
        <path
            d="M244.053 199.405C244.053 199.432 243.901 199.529 243.69 199.63C243.569 199.704 243.432 199.749 243.291 199.764C243.291 199.736 243.443 199.64 243.649 199.538C243.773 199.465 243.91 199.42 244.053 199.405Z"
            fill="#263238" />
        <path
            d="M243.961 198.862C243.961 198.862 243.828 199.046 243.589 199.18C243.454 199.272 243.294 199.32 243.131 199.318C243.262 199.229 243.402 199.154 243.548 199.092C243.773 198.968 243.938 198.839 243.961 198.862Z"
            fill="#263238" />
        <path
            d="M243.021 200.326C242.881 200.422 242.726 200.494 242.562 200.537C242.382 200.59 242.198 200.629 242.011 200.652C241.899 200.667 241.785 200.667 241.672 200.652C241.601 200.647 241.535 200.614 241.488 200.56C241.467 200.528 241.456 200.489 241.456 200.45C241.456 200.411 241.467 200.372 241.488 200.339C241.628 200.17 241.822 200.054 242.037 200.012C242.252 199.97 242.475 200.004 242.667 200.109C242.781 200.169 242.881 200.252 242.961 200.353C243.016 200.427 243.039 200.473 243.034 200.478C242.921 200.351 242.786 200.246 242.635 200.169C242.474 200.093 242.294 200.066 242.117 200.091C242.012 200.102 241.91 200.133 241.817 200.184C241.724 200.234 241.642 200.303 241.575 200.385C241.525 200.473 241.575 200.547 241.699 200.56C241.805 200.57 241.911 200.57 242.016 200.56C242.199 200.542 242.38 200.51 242.557 200.464C242.819 200.39 243.021 200.312 243.021 200.326Z"
            fill="#263238" />
        <path
            d="M242.892 200.404C242.79 200.331 242.718 200.223 242.69 200.1C242.65 199.97 242.641 199.833 242.663 199.699C242.671 199.611 242.701 199.526 242.751 199.453C242.801 199.379 242.868 199.32 242.947 199.28C243.062 199.243 243.328 199.478 243.347 199.566C243.365 199.653 243.213 199.607 243.204 199.681C243.189 199.812 243.159 199.94 243.113 200.063C243.079 200.181 243.016 200.289 242.929 200.376C242.929 200.376 242.984 200.252 243.048 200.045C243.081 199.922 243.104 199.798 243.117 199.672C243.117 199.543 243.117 199.345 242.97 199.377C242.823 199.409 242.782 199.589 242.75 199.718C242.722 199.837 242.722 199.962 242.75 200.081C242.788 200.193 242.836 200.301 242.892 200.404Z"
            fill="#263238" />
        <path
            d="M250.577 196.311C250.577 196.311 250.357 196.389 250.045 196.578C249.637 196.823 249.305 197.177 249.086 197.6C248.874 198.028 248.783 198.506 248.824 198.982C248.852 199.35 248.939 199.562 248.921 199.571C248.891 199.525 248.868 199.476 248.852 199.424C248.806 199.283 248.774 199.138 248.756 198.991C248.69 198.5 248.775 198.002 248.998 197.561C249.222 197.12 249.574 196.758 250.008 196.523C250.138 196.451 250.275 196.392 250.416 196.348C250.468 196.328 250.522 196.315 250.577 196.311Z"
            fill="#263238" />
        <path
            d="M247.691 199.322C247.044 199.774 246.322 200.104 245.558 200.298C245.558 200.271 246.04 200.086 246.627 199.838C247.214 199.589 247.678 199.299 247.691 199.322Z"
            fill="#263238" />
        <path
            d="M249.118 198.664C249.141 198.664 249.118 198.779 249.118 198.913C249.118 199.046 249.118 199.157 249.118 199.166C249.118 199.175 249.026 199.065 249.026 198.913C249.026 198.761 249.095 198.65 249.118 198.664Z"
            fill="#263238" />
        <path
            d="M249.352 197.743C249.375 197.743 249.352 197.849 249.325 197.959C249.297 198.07 249.228 198.153 249.205 198.143C249.182 198.134 249.205 198.038 249.233 197.927C249.26 197.817 249.325 197.734 249.352 197.743Z"
            fill="#263238" />
        <path
            d="M249.986 197.066C249.986 197.093 249.894 197.135 249.802 197.222C249.71 197.31 249.66 197.402 249.637 197.393C249.614 197.383 249.637 197.254 249.738 197.148C249.839 197.043 249.981 197.066 249.986 197.066Z"
            fill="#263238" />
        <path
            d="M250.467 196.688C250.467 196.688 250.467 196.762 250.412 196.813C250.357 196.864 250.306 196.892 250.288 196.873C250.27 196.855 250.288 196.799 250.343 196.749C250.398 196.698 250.449 196.67 250.467 196.688Z"
            fill="#263238" />
        <path
            d="M241.442 102.972L240.103 86.5342L246.985 86.6585C246.985 86.6585 247.301 84.232 246.287 78.9186C245.663 75.6587 243.502 73.6604 241.075 72.4725V72.4265L240.864 72.3712C238.866 71.471 236.732 70.9124 234.551 70.7183L226.086 70.815C226.086 70.815 219.621 69.9862 216.056 74.632C214.68 76.4138 210.408 88.6107 210.408 88.6107L220.571 93.519L219.621 86.7552C219.621 86.7552 219.814 91.6588 220.438 93.2013C220.782 94.0669 221.814 96.7558 221.814 96.7558L221.681 104.869L241.442 102.972Z"
            fill="#0898A0" />
        <path d="M236.772 84.1491L235.519 89.5178H247.37L246.59 80.5117L236.772 84.1491Z"
            fill="#0898A0" />
        <path
            d="M247.37 89.5175C246.852 89.4218 246.327 89.3694 245.801 89.361C244.828 89.3057 243.507 89.2551 242.002 89.2643C240.497 89.2735 239.171 89.3379 238.198 89.4116C237.672 89.43 237.149 89.4947 236.634 89.605C237.159 89.647 237.687 89.647 238.212 89.605C239.18 89.5728 240.506 89.5359 242.002 89.5313C243.498 89.5267 244.824 89.5313 245.796 89.5543C246.321 89.5839 246.847 89.5715 247.37 89.5175Z"
            fill="#263238" />
        <path
            d="M236.262 80.4702C236.206 80.9284 236.193 81.391 236.225 81.8515C236.225 82.6941 236.262 83.8544 236.313 85.139C236.363 86.4236 236.423 87.5885 236.478 88.4265C236.48 88.8908 236.529 89.3536 236.625 89.8078C236.681 89.3496 236.693 88.8871 236.661 88.4265C236.661 87.5839 236.625 86.419 236.574 85.1344C236.524 83.8498 236.464 82.6895 236.409 81.8469C236.407 81.3842 236.358 80.9229 236.262 80.4702Z"
            fill="#263238" />
        <g opacity="0.3">
            <path
                d="M225.48 85.1201C225.48 85.1201 228.114 104.721 235.519 104.201C235.519 104.201 238.854 104.164 239.923 101.94V101.065L225.48 85.1201Z"
                fill="black" opacity="0.3" />
        </g>
        <g opacity="0.3">
            <path
                d="M236.262 81.626L234.844 91.2352L235.762 92.9204L237.272 89.6237L236.634 89.6053L236.262 81.626Z"
                fill="black" opacity="0.3" />
        </g>
        <path
            d="M221.773 96.7649C221.685 96.6214 221.617 96.4665 221.571 96.3045C221.456 96.0052 221.305 95.5678 221.112 95.0199C220.653 93.5922 220.274 92.1395 219.979 90.6688C219.684 89.1972 219.497 87.7061 219.419 86.2072C219.392 85.6316 219.382 85.1666 219.392 84.8259C219.38 84.6594 219.391 84.4921 219.424 84.3286C219.46 84.3286 219.488 85.0377 219.584 86.1703C219.713 87.6556 219.923 89.1328 220.213 90.5951C220.552 92.3079 220.961 93.8412 221.273 94.9416C221.419 95.4527 221.543 95.8901 221.644 96.2492C221.707 96.4154 221.75 96.5886 221.773 96.7649Z"
            fill="#263238" />
        <path
            d="M224.765 102.396C224.7 102.396 224.517 101.996 224.356 101.475C224.218 101.157 224.157 100.809 224.177 100.462C224.38 100.744 224.519 101.066 224.586 101.406C224.717 101.719 224.778 102.057 224.765 102.396Z"
            fill="#263238" />
        <path
            d="M225.787 102.322C225.44 101.399 225.426 100.382 225.746 99.4492C225.782 99.9274 225.782 100.408 225.746 100.886C225.796 101.363 225.81 101.843 225.787 102.322Z"
            fill="#263238" />
        <path
            d="M220.777 93.7447C220.745 93.7999 218.382 92.6765 215.496 91.2307C212.61 89.7849 210.293 88.5602 210.321 88.5003C210.348 88.4405 212.716 89.5685 215.602 91.0143C218.488 92.4601 220.805 93.6848 220.777 93.7447Z"
            fill="#263238" />
        <path
            d="M224.943 72.4036C224.994 70.0738 225.008 67.6243 225.008 67.6243C225.008 67.6243 222.03 67.0488 221.511 63.1166C221.016 59.3687 222.401 50.5698 222.401 50.5698C226.751 48.9214 231.27 50.4179 234.248 53.954L233.509 72.864C233.422 75.0603 231.472 76.7363 229.132 76.6258C226.765 76.5107 224.893 74.6229 224.943 72.4036Z"
            fill="#B78876" />
        <path
            d="M222.172 57.6002C222.168 57.7293 222.213 57.855 222.298 57.9517C222.384 58.0484 222.503 58.1088 222.631 58.1205C222.696 58.1268 222.762 58.1197 222.824 58.0997C222.886 58.0797 222.944 58.0472 222.993 58.0041C223.043 57.961 223.083 57.9083 223.111 57.8491C223.14 57.79 223.156 57.7256 223.158 57.6601C223.162 57.5315 223.117 57.4063 223.032 57.3103C222.946 57.2143 222.827 57.1549 222.7 57.1444C222.634 57.1344 222.567 57.1388 222.504 57.1571C222.44 57.1754 222.381 57.2074 222.331 57.2506C222.281 57.2939 222.241 57.3476 222.214 57.4079C222.186 57.4683 222.172 57.5338 222.172 57.6002Z"
            fill="#263238" />
        <path
            d="M221.988 56.9418C222.048 57.0062 222.447 56.7346 222.975 56.753C223.502 56.7714 223.892 57.0477 223.957 56.9832C224.021 56.9188 223.929 56.8359 223.759 56.7024C223.53 56.5353 223.254 56.4437 222.97 56.4399C222.691 56.4292 222.415 56.51 222.186 56.6701C222.016 56.7944 221.956 56.9095 221.988 56.9418Z"
            fill="#263238" />
        <path
            d="M227.637 57.941C227.631 58.0704 227.676 58.1968 227.762 58.2937C227.847 58.3907 227.967 58.4507 228.095 58.4613C228.161 58.4714 228.228 58.4669 228.292 58.4483C228.356 58.4297 228.415 58.3974 228.465 58.3536C228.516 58.3098 228.556 58.2555 228.583 58.1946C228.61 58.1337 228.624 58.0676 228.623 58.0009C228.628 57.872 228.583 57.7462 228.498 57.6499C228.412 57.5537 228.292 57.4946 228.164 57.4852C228.099 57.4752 228.032 57.4796 227.969 57.4979C227.905 57.5163 227.846 57.5482 227.796 57.5915C227.746 57.6348 227.706 57.6884 227.678 57.7488C227.651 57.8091 227.637 57.8747 227.637 57.941Z"
            fill="#263238" />
        <path
            d="M227.6 57.2823C227.66 57.3513 228.059 57.0797 228.586 57.0935C229.114 57.1073 229.504 57.3881 229.573 57.3237C229.642 57.2592 229.541 57.1764 229.371 57.0474C229.145 56.876 228.87 56.7824 228.586 56.7804C228.306 56.772 228.03 56.8525 227.797 57.0106C227.632 57.1349 227.572 57.25 227.6 57.2823Z"
            fill="#263238" />
        <path
            d="M225.544 61.2375C225.263 61.1403 224.97 61.0799 224.672 61.0579C224.535 61.0579 224.406 61.0073 224.388 60.9152C224.377 60.7712 224.412 60.6276 224.489 60.5054L224.92 59.4694C225.322 58.5889 225.651 57.6774 225.907 56.7437C225.437 57.5897 225.035 58.4719 224.705 59.3819C224.562 59.7457 224.42 60.0956 224.287 60.4271C224.198 60.5916 224.169 60.7821 224.205 60.9658C224.223 61.0157 224.252 61.0608 224.29 61.0975C224.328 61.1343 224.374 61.1617 224.425 61.1776C224.501 61.1997 224.579 61.2121 224.659 61.2144C224.952 61.2597 225.249 61.2675 225.544 61.2375Z"
            fill="#263238" />
        <path
            d="M225.008 67.6236C226.843 67.6974 228.663 67.2591 230.266 66.3574C230.266 66.3574 228.93 69.0141 225.035 68.5491L225.008 67.6236Z"
            fill="#A36957" />
        <path
            d="M229.325 55.7124C229.215 55.8828 228.802 55.8091 228.343 55.7124C227.884 55.6157 227.48 55.5375 227.425 55.3395C227.37 55.1415 227.852 54.879 228.467 55.0034C229.082 55.1277 229.435 55.5651 229.325 55.7124Z"
            fill="#263238" />
        <path
            d="M223.971 54.93C223.929 55.128 223.489 55.2017 222.984 55.2247C222.479 55.2477 222.034 55.2247 221.975 55.0221C221.915 54.8195 222.342 54.534 222.952 54.5064C223.562 54.4788 224.012 54.7412 223.971 54.93Z"
            fill="#263238" />
        <path
            d="M225.554 62.5314C225.496 62.5176 225.435 62.5237 225.381 62.5488C225.327 62.5738 225.282 62.6163 225.255 62.6695C225.229 62.7165 225.216 62.7695 225.216 62.8232C225.217 62.877 225.231 62.9297 225.259 62.9761C225.286 63.0224 225.324 63.0609 225.371 63.0876C225.417 63.1143 225.47 63.1284 225.524 63.1284C225.577 63.1284 225.63 63.1143 225.676 63.0876C225.723 63.0609 225.762 63.0224 225.789 62.9761C225.816 62.9297 225.83 62.877 225.831 62.8232C225.832 62.7695 225.818 62.7165 225.792 62.6695C225.759 62.6077 225.706 62.5589 225.642 62.5313C225.578 62.5037 225.506 62.4988 225.439 62.5176"
            fill="#A36957" />
        <path
            d="M225.677 62.587C225.677 62.564 225.59 62.4305 225.356 62.4811C225.286 62.4994 225.222 62.5359 225.171 62.5868C225.119 62.6377 225.082 62.7013 225.062 62.7712C225.038 62.8593 225.04 62.9529 225.069 63.0398C225.097 63.1267 225.151 63.2031 225.223 63.2592C225.299 63.3117 225.39 63.3398 225.482 63.3398C225.575 63.3398 225.665 63.3117 225.741 63.2592C225.802 63.218 225.85 63.1601 225.88 63.0924C225.909 63.0247 225.918 62.95 225.907 62.8771C225.861 62.633 225.682 62.5962 225.673 62.6284C225.663 62.6607 225.737 62.7436 225.723 62.8863C225.72 62.9216 225.708 62.9555 225.689 62.9852C225.67 63.0149 225.644 63.0395 225.613 63.0566C225.577 63.0773 225.537 63.0881 225.496 63.0881C225.455 63.0881 225.415 63.0773 225.379 63.0566C225.347 63.0294 225.323 62.9943 225.308 62.9548C225.294 62.9152 225.29 62.8726 225.296 62.831C225.302 62.7947 225.316 62.7601 225.337 62.7304C225.359 62.7007 225.387 62.6768 225.42 62.6607C225.549 62.5824 225.663 62.6192 225.677 62.587Z"
            fill="#263238" />
        <path
            d="M232.468 58.5723C232.009 59.6497 230.871 60.4831 231.027 61.648C231.128 62.3985 231.61 63.0984 231.518 63.8535C231.399 64.7743 230.421 65.4558 230.279 66.3997C230.109 67.5554 231.234 68.4532 231.679 69.5306C232.335 71.1053 231.5 72.8734 231.477 74.5954C231.504 75.9028 232.002 77.156 232.879 78.1229C233.757 79.0897 234.954 79.7046 236.248 79.8535C237.294 79.941 238.474 79.6233 239.001 78.7209C239.46 77.975 239.359 77.0265 239.625 76.2023C240.029 74.9683 241.199 74.0659 241.46 72.7951C241.919 70.4929 239.121 68.5591 239.304 66.2017C239.382 65.1933 240.001 64.3185 240.263 63.3424C240.429 62.7009 240.442 62.0289 240.3 61.3815C240.158 60.7341 239.866 60.1296 239.446 59.6175C238.753 58.7933 237.753 58.2362 237.152 57.3521C236.487 56.3346 236.464 55.05 236.235 53.8482C235.927 52.3876 235.254 51.0291 234.281 49.8998C233.308 48.7706 232.065 47.9074 230.669 47.3909C229.273 46.8744 227.77 46.7216 226.299 46.9466C224.828 47.1716 223.438 47.7671 222.259 48.6776C222.259 48.6776 221.594 51.7118 224.7 52.2229C227.806 52.734 229.242 52.1446 229.591 53.3924C229.509 53.9064 229.549 54.4327 229.709 54.9281C229.868 55.4235 230.142 55.8739 230.509 56.2425C231.775 57.6146 232.982 57.3199 232.468 58.5723Z"
            fill="#263238" />
        <path
            d="M237.4 79.6181C237.305 79.6214 237.209 79.6121 237.116 79.5905C236.847 79.5426 236.582 79.4702 236.327 79.3741C235.379 79.0096 234.548 78.3937 233.922 77.5922C233.484 77.0392 233.139 76.4168 232.904 75.7505C232.636 74.9916 232.495 74.1935 232.486 73.3885C232.477 72.5011 232.588 71.6166 232.817 70.7594C232.942 70.3066 233.095 69.8622 233.275 69.4287C233.465 68.9972 233.632 68.5562 233.776 68.1073C233.902 67.6649 233.902 67.1959 233.776 66.7536C233.641 66.3181 233.468 65.8959 233.257 65.492C233.044 65.0915 232.865 64.6742 232.72 64.2442C232.579 63.8187 232.546 63.3644 232.624 62.9228C232.807 62.0572 233.33 61.4126 233.642 60.7541C233.94 60.1446 234.082 59.4707 234.055 58.7927C234.014 57.8004 233.655 56.848 233.032 56.0761C232.791 55.8057 232.532 55.5519 232.257 55.3164C232.579 55.4978 232.866 55.7347 233.106 56.0163C233.774 56.787 234.168 57.7589 234.225 58.7789C234.263 59.4864 234.124 60.1923 233.821 60.8324C233.505 61.5139 232.996 62.1631 232.84 62.955C232.684 63.747 233.055 64.5803 233.464 65.3815C233.686 65.7969 233.868 66.2334 234.005 66.6845C234.14 67.1663 234.14 67.6762 234.005 68.1579C233.852 68.6224 233.676 69.0788 233.477 69.5254C233.297 69.9495 233.144 70.3847 233.018 70.8284C232.791 71.664 232.678 72.5269 232.684 73.3931C232.669 74.8683 233.144 76.3065 234.032 77.4817C234.627 78.2732 235.418 78.894 236.327 79.282C237.01 79.5491 237.405 79.5905 237.4 79.6181Z"
            fill="#455A64" />
        <path
            d="M236.941 56.3848C236.718 56.4428 236.488 56.4768 236.258 56.486C235.628 56.5536 234.992 56.5366 234.367 56.4354C233.893 56.365 233.438 56.2005 233.029 55.9514C232.619 55.7024 232.263 55.3738 231.981 54.985C231.719 54.4931 231.51 53.9745 231.357 53.438C231.162 52.9021 230.794 52.4468 230.311 52.1442C229.306 51.5042 228.127 51.4259 227.1 51.3016C226.152 51.2541 225.231 50.9658 224.425 50.4636C223.885 50.1044 223.494 49.5589 223.328 48.9303C223.288 48.76 223.277 48.584 223.296 48.41C223.296 48.2903 223.324 48.2305 223.333 48.2305C223.338 48.4585 223.367 48.6854 223.42 48.9073C223.61 49.495 224 49.997 224.521 50.3254C225.313 50.789 226.207 51.0484 227.123 51.0806C228.15 51.2003 229.371 51.2601 230.444 51.9416C230.97 52.2727 231.37 52.7701 231.582 53.3551C231.726 53.878 231.924 54.3842 232.174 54.8653C232.708 55.601 233.509 56.097 234.404 56.2466C235.009 56.3595 235.625 56.4012 236.239 56.3709C236.473 56.3577 236.708 56.3624 236.941 56.3848Z"
            fill="#455A64" />
        <path
            d="M235.803 52.6374C235.631 52.6955 235.449 52.722 235.267 52.7157C234.411 52.7215 233.588 52.3909 232.973 51.7949C232.692 51.5124 232.452 51.1915 232.261 50.8418C231.848 50.1419 231.449 49.2809 230.591 48.9217C229.765 48.6435 228.884 48.5661 228.022 48.6961C227.294 48.7987 226.556 48.7987 225.829 48.6961C225.323 48.6257 224.846 48.4152 224.452 48.0884C224.351 47.9993 224.261 47.8972 224.186 47.7845C224.131 47.7047 224.108 47.6632 224.117 47.6602C224.117 47.6602 224.246 47.8075 224.512 48.0147C224.904 48.2947 225.36 48.472 225.838 48.5304C226.552 48.6112 227.274 48.5988 227.985 48.4935C228.885 48.3461 229.807 48.4252 230.669 48.7238C231.112 48.9236 231.492 49.2422 231.766 49.6446C232.008 50.0036 232.23 50.3755 232.431 50.7589C232.612 51.0935 232.836 51.4031 233.096 51.6797C233.327 51.9137 233.591 52.1109 233.881 52.2645C234.308 52.4881 234.777 52.6184 235.258 52.6467C235.611 52.6421 235.799 52.6144 235.803 52.6374Z"
            fill="#455A64" />
        <path
            d="M238.768 78.624C238.745 78.624 238.891 78.3201 239.061 77.7492C239.291 76.9477 239.393 76.1148 239.364 75.2812C239.331 74.0474 238.995 72.8408 238.387 71.7681C238.052 71.165 237.543 70.6262 237.125 69.9632C236.904 69.6255 236.748 69.249 236.666 68.8536C236.594 68.4373 236.629 68.0094 236.767 67.6104C237.024 66.8139 237.483 66.1462 237.584 65.4141C237.685 64.682 237.336 64.0328 236.987 63.4205C236.808 63.1225 236.644 62.8151 236.496 62.4996C236.362 62.1936 236.274 61.8693 236.235 61.5373C236.192 60.9522 236.21 60.3642 236.29 59.783C236.437 58.9615 236.361 58.1154 236.07 57.3335C235.94 57.0596 235.756 56.8152 235.528 56.6152C235.528 56.6152 235.551 56.6152 235.583 56.6429C235.638 56.6699 235.687 56.7057 235.73 56.7488C235.91 56.8988 236.055 57.0856 236.157 57.2967C236.489 58.0853 236.592 58.9519 236.455 59.7968C236.392 60.3672 236.384 60.9424 236.432 61.5143C236.545 62.1576 236.799 62.7677 237.175 63.3007C237.371 63.6119 237.539 63.9401 237.676 64.2815C237.82 64.6499 237.868 65.0496 237.813 65.4418C237.703 66.2475 237.231 66.929 236.992 67.6795C236.867 68.0416 236.834 68.4293 236.896 68.8075C236.976 69.1734 237.122 69.5213 237.327 69.8343C237.717 70.4743 238.245 71.0222 238.579 71.653C239.194 72.762 239.522 74.0077 239.534 75.2766C239.548 76.126 239.418 76.9716 239.148 77.7768C239.075 77.9947 238.986 78.2071 238.882 78.4122C238.854 78.4879 238.816 78.5592 238.768 78.624Z"
            fill="#455A64" />
        <path
            d="M220.08 164.416C220.08 164.416 216.988 135.022 216.809 124.161C216.63 113.299 221.677 102.58 221.677 102.58L241.442 101.756C241.442 101.756 245.351 112.774 245.42 117.411C245.558 126.408 243.039 135.289 243.328 142.426L243.989 164.435"
            fill="#263238" />
        <path
            d="M244.654 128.277C244.551 128.367 244.442 128.45 244.328 128.525L244.149 128.65L243.957 128.839C243.787 128.986 243.633 129.151 243.498 129.331C242.86 130.114 242.397 131.518 241.952 133.263C241.724 134.231 241.389 135.17 240.951 136.063C240.818 136.307 240.665 136.54 240.493 136.758C240.41 136.869 240.332 136.988 240.236 137.094L239.933 137.398C239.499 137.805 238.995 138.129 238.446 138.356C237.341 138.844 236.088 139.074 234.95 139.65C233.784 140.279 232.884 141.309 232.413 142.55C231.853 143.798 231.495 145.106 231.036 146.33C230.578 147.555 229.958 148.725 228.972 149.471C228.029 150.128 226.909 150.483 225.76 150.488C224.696 150.553 223.709 150.52 222.824 150.654C222.027 150.737 221.265 151.026 220.612 151.492C220.135 151.866 219.778 152.372 219.584 152.947C219.461 153.31 219.435 153.699 219.506 154.075C219.561 154.333 219.63 154.457 219.617 154.462C219.543 154.346 219.49 154.218 219.461 154.084C219.364 153.7 219.376 153.296 219.497 152.919C219.68 152.316 220.039 151.781 220.53 151.386C221.199 150.879 221.991 150.561 222.824 150.465C223.741 150.318 224.719 150.336 225.769 150.267C226.884 150.26 227.97 149.913 228.885 149.273C229.812 148.46 230.496 147.404 230.862 146.225C231.321 145.014 231.656 143.701 232.238 142.431C232.732 141.138 233.674 140.067 234.89 139.415C236.074 138.825 237.327 138.6 238.405 138.13C238.933 137.911 239.418 137.599 239.836 137.209L240.125 136.919C240.217 136.818 240.295 136.703 240.378 136.597C240.54 136.388 240.682 136.164 240.805 135.929C241.244 135.049 241.584 134.123 241.819 133.167C242.277 131.426 242.777 130.003 243.452 129.216C243.586 129.037 243.74 128.873 243.911 128.728C243.984 128.664 244.048 128.599 244.113 128.549L244.301 128.429C244.415 128.371 244.533 128.32 244.654 128.277Z"
            fill="#FAFAFA" />
        <path
            d="M244.773 114.676C244.794 114.805 244.803 114.936 244.8 115.067C244.799 115.447 244.753 115.826 244.663 116.195C244.268 117.542 243.492 118.745 242.428 119.658C241.727 120.305 240.958 120.875 240.134 121.357C239.249 121.882 238.272 122.383 237.267 122.954C236.211 123.522 235.228 124.216 234.34 125.022C233.428 125.93 232.677 126.987 232.119 128.148C231.556 129.325 230.914 130.462 230.196 131.551C229.832 132.058 229.41 132.522 228.939 132.932C228.475 133.328 227.965 133.667 227.421 133.94C226.435 134.426 225.408 134.822 224.351 135.124C223.369 135.428 222.452 135.699 221.653 136.045C220.929 136.334 220.239 136.705 219.598 137.15C219.115 137.485 218.681 137.887 218.309 138.342C217.996 138.737 217.736 139.17 217.533 139.631C217.566 139.504 217.609 139.379 217.662 139.258C217.812 138.911 218.005 138.583 218.235 138.282C218.601 137.808 219.034 137.389 219.52 137.039C220.164 136.578 220.858 136.192 221.589 135.888C222.473 135.527 223.375 135.211 224.292 134.944C225.333 134.636 226.346 134.238 227.32 133.756C227.836 133.486 228.321 133.158 228.765 132.78C229.218 132.376 229.624 131.921 229.976 131.426C230.684 130.343 231.32 129.214 231.88 128.047C232.456 126.86 233.232 125.782 234.174 124.861C235.079 124.043 236.081 123.341 237.157 122.77C238.166 122.204 239.143 121.711 240.029 121.191C240.85 120.725 241.619 120.172 242.323 119.543C243.377 118.657 244.16 117.49 244.58 116.177C244.698 115.685 244.763 115.182 244.773 114.676Z"
            fill="#FAFAFA" />
        <path
            d="M216.909 125.698C216.891 125.67 216.877 125.639 216.868 125.606C216.834 125.518 216.805 125.427 216.781 125.335C216.702 124.968 216.718 124.588 216.827 124.23C217.084 123.309 218.098 122.125 219.731 121.541C220.548 121.26 221.47 121.08 222.434 120.841C223.234 120.708 223.991 120.385 224.641 119.899C225.291 119.412 225.817 118.777 226.173 118.046C226.434 117.509 226.662 116.957 226.857 116.393C227.215 115.167 227.703 113.984 228.311 112.861C229.008 111.759 230.066 110.933 231.302 110.527C232.428 110.161 233.576 109.868 234.739 109.652C235.777 109.452 236.782 109.108 237.726 108.63C238.525 108.172 239.214 107.543 239.745 106.788C240.528 105.699 240.975 104.402 241.029 103.059C241.031 102.566 240.999 102.074 240.933 101.585C241.072 102.064 241.135 102.561 241.121 103.059C241.103 104.431 240.671 105.765 239.882 106.885C239.345 107.665 238.641 108.314 237.822 108.787C236.866 109.283 235.845 109.641 234.789 109.85C233.637 110.07 232.5 110.364 231.385 110.73C230.197 111.12 229.182 111.913 228.513 112.972C227.914 114.079 227.433 115.245 227.077 116.453C226.878 117.027 226.644 117.589 226.375 118.133C226.103 118.657 225.757 119.138 225.347 119.561C224.541 120.298 223.549 120.8 222.479 121.011C221.507 121.26 220.589 121.416 219.786 121.683C218.194 122.227 217.185 123.346 216.914 124.239C216.803 124.583 216.773 124.949 216.827 125.307C216.866 125.435 216.893 125.566 216.909 125.698Z"
            fill="#FAFAFA" />
        <path
            d="M243.076 150.562C243.094 150.658 243.105 150.755 243.108 150.852C243.117 151.131 243.087 151.41 243.021 151.681C242.732 152.679 242.122 153.554 241.286 154.167C240.728 154.614 240.11 154.979 239.451 155.254C238.749 155.553 237.974 155.793 237.157 156.046C236.309 156.294 235.48 156.602 234.675 156.967C233.839 157.368 233.089 157.929 232.468 158.62C231.798 159.319 231.22 160.088 230.578 160.77C229.963 161.43 229.249 161.989 228.462 162.427C227.123 163.161 225.625 163.553 224.099 163.569C223.077 163.58 222.061 163.41 221.098 163.067C220.837 162.977 220.582 162.868 220.337 162.74C220.247 162.703 220.163 162.655 220.084 162.598C220.178 162.62 220.269 162.653 220.355 162.694C220.607 162.803 220.864 162.898 221.126 162.98C222.087 163.282 223.092 163.424 224.099 163.399C225.591 163.36 227.052 162.961 228.357 162.234C229.119 161.801 229.811 161.252 230.408 160.609C231.036 159.936 231.61 159.172 232.294 158.454C232.951 157.737 233.743 157.159 234.624 156.75C235.441 156.384 236.283 156.076 237.143 155.829C237.951 155.581 238.722 155.369 239.437 155.065C240.077 154.802 240.679 154.454 241.227 154.029C242.049 153.446 242.662 152.613 242.975 151.653C243.042 151.293 243.076 150.928 243.076 150.562Z"
            fill="#FAFAFA" />
        <path
            d="M240.823 89.536L236.996 89.6281C236.849 90.4024 236.556 91.1415 236.134 91.8059C232.922 86.2347 230.458 78.7756 229.843 75.7782C229.935 75.4789 230.041 75.1474 230.174 74.7791C230.269 74.2196 230.252 73.6466 230.123 73.0939C230.013 72.4262 229.83 71.5284 229.775 71.114C229.605 69.8432 229.398 69.6452 228.958 69.788C228.361 69.9859 229.206 73.3471 228.715 73.4208C228.449 73.4576 228.127 72.3065 228.036 71.3626C227.944 70.4187 227.513 67.5088 227.205 67.3154C226.746 67.0299 226.347 67.4812 226.466 68.4205C226.586 69.3597 226.728 72.2144 226.232 72.2559C225.737 72.2973 225.315 67.472 225.315 67.472C225.315 67.472 225.393 66.4222 224.815 66.4452C223.778 66.4912 224.59 71.5744 224.677 72.0579C224.741 72.3894 224.218 72.4539 224.154 72.0901C224.09 71.7264 223.851 67.2694 222.778 67.3062C221.961 67.3062 223.406 71.4916 222.947 72.4585C222.489 73.4254 222.177 69.1802 221.401 69.2354C221.112 69.2584 220.896 69.3137 221.429 71.7126C221.938 73.6185 222.551 75.4953 223.264 77.3345C224.494 83.9877 229.889 105.274 238.345 101.378C243.08 99.1959 244.998 89.536 244.998 89.536H240.823Z"
            fill="#B78876" />
        <path
            d="M224.512 72.3805C224.548 72.3896 224.586 72.3896 224.622 72.3805C224.677 72.3635 224.725 72.3273 224.756 72.2784C224.787 72.2294 224.8 72.1709 224.792 72.1134C224.792 71.828 224.737 71.4136 224.673 70.8749C224.565 70.2256 224.495 69.5707 224.462 68.9134C224.462 68.5266 224.461 68.1123 224.484 67.6748C224.491 67.4524 224.514 67.2308 224.553 67.0118C224.59 66.8046 224.728 66.5514 224.888 66.5928H224.916C225.076 66.5928 225.205 66.7125 225.255 66.9059C225.312 67.1063 225.334 67.3151 225.319 67.5229C225.414 68.8124 225.578 70.0958 225.81 71.3675C225.847 71.5379 225.884 71.7129 225.939 71.8878C225.963 71.9774 225.994 72.0651 226.031 72.1503C226.054 72.1977 226.08 72.2438 226.109 72.2884C226.129 72.3221 226.157 72.3504 226.191 72.3712C226.224 72.392 226.262 72.4046 226.301 72.4081C226.368 72.4007 226.431 72.3736 226.483 72.3302C226.534 72.2867 226.572 72.2289 226.59 72.1641C226.63 72.074 226.659 71.9798 226.678 71.8832C226.713 71.6976 226.738 71.51 226.751 71.3215C226.793 70.5543 226.782 69.7851 226.719 69.0193C226.661 68.637 226.645 68.2494 226.673 67.8636C226.69 67.697 226.77 67.5434 226.898 67.4354C226.927 67.4179 226.96 67.4067 226.994 67.4028C227.028 67.3988 227.062 67.4021 227.095 67.4124C227.134 67.4218 227.171 67.4373 227.205 67.4584C227.228 67.4759 227.246 67.5 227.256 67.5275C227.4 67.9009 227.506 68.2881 227.572 68.6832C227.655 69.0884 227.724 69.5074 227.788 69.9264C227.852 70.3454 227.912 70.769 227.962 71.1972C228.002 71.639 228.072 72.0776 228.173 72.5094C228.228 72.7302 228.297 72.9471 228.38 73.1586C228.427 73.277 228.492 73.3873 228.572 73.4855C228.603 73.5263 228.645 73.5575 228.693 73.5754C228.741 73.5934 228.793 73.5973 228.843 73.5868C228.89 73.5714 228.931 73.5443 228.964 73.508C228.997 73.4717 229.02 73.4275 229.031 73.3796C229.086 73.1443 229.103 72.902 229.082 72.6614C229.082 72.4311 229.054 72.2009 229.031 71.9799C228.999 71.5931 228.962 71.211 228.949 70.8334C228.937 70.6479 228.937 70.4618 228.949 70.2763C228.958 70.1942 228.978 70.1136 229.008 70.0369C229.018 70.0116 229.032 69.9882 229.05 69.9678H229.109C229.412 69.8435 229.513 70.2671 229.596 70.6078C229.678 70.9485 229.71 71.3353 229.784 71.699C229.903 72.4219 230.059 73.1448 230.137 73.8355C230.19 74.1662 230.178 74.5041 230.1 74.83C229.99 75.1615 229.88 75.4884 229.775 75.8153V75.8476V75.8752C230.312 78.1372 230.997 80.3613 231.825 82.5331C232.55 84.4991 233.28 86.2165 233.918 87.5979C234.555 88.9792 235.133 90.0612 235.528 90.7887L235.987 91.6128C236.037 91.7111 236.097 91.8037 236.166 91.8891C236.127 91.7868 236.08 91.6882 236.024 91.5944L235.565 90.7518C235.189 90.0105 234.647 88.9101 234.023 87.5288C233.399 86.1475 232.693 84.4301 231.986 82.464C231.178 80.2955 230.506 78.0779 229.976 75.8245V75.889C230.082 75.5667 230.187 75.2398 230.298 74.9129C230.393 74.5541 230.412 74.179 230.353 73.8124C230.27 73.0896 230.119 72.3897 229.999 71.6622C229.931 71.3031 229.885 70.9347 229.811 70.5572C229.807 70.3632 229.774 70.1709 229.715 69.9862C229.663 69.8739 229.574 69.7829 229.463 69.7284C229.345 69.6897 229.218 69.6897 229.1 69.7284H229.027C228.988 69.7409 228.952 69.7613 228.921 69.7882C228.87 69.8316 228.831 69.887 228.806 69.9494C228.764 70.0491 228.738 70.1547 228.728 70.2625C228.715 70.4618 228.715 70.6618 228.728 70.8611C228.728 71.2478 228.784 71.6346 228.816 72.0213C228.816 72.247 228.852 72.4818 228.862 72.689C228.88 72.8967 228.869 73.1059 228.829 73.3106C228.829 73.3566 228.793 73.3474 228.829 73.3704L228.802 73.3428C228.743 73.2676 228.697 73.1837 228.664 73.0942C228.584 72.895 228.518 72.6903 228.467 72.4818C228.366 72.0625 228.297 71.6361 228.26 71.2064C228.212 70.7736 228.152 70.3454 228.082 69.9218C228.017 69.4982 227.944 69.0838 227.861 68.6694C227.792 68.2476 227.675 67.8351 227.513 67.44C227.481 67.374 227.432 67.3182 227.37 67.2789C227.317 67.2478 227.26 67.223 227.201 67.2052C227.135 67.188 227.067 67.184 227 67.1935C226.933 67.203 226.869 67.2257 226.811 67.2605C226.716 67.3314 226.637 67.4212 226.579 67.5242C226.52 67.6272 226.484 67.7412 226.471 67.859C226.441 68.0682 226.441 68.2806 226.471 68.4898C226.471 68.6878 226.517 68.8812 226.531 69.0746C226.595 69.8279 226.608 70.5847 226.572 71.3399C226.561 71.5193 226.538 71.6978 226.503 71.874C226.49 71.9563 226.467 72.0367 226.434 72.1134C226.422 72.1438 226.405 72.1718 226.384 72.1963C226.384 72.2378 226.352 72.1963 226.356 72.2516C226.356 72.2055 226.356 72.2516 226.356 72.1917C226.336 72.1606 226.318 72.1283 226.301 72.095C226.269 72.0213 226.242 71.9385 226.214 71.8602C226.164 71.6944 226.127 71.5241 226.09 71.3583C225.851 70.0975 225.678 68.825 225.572 67.5459C225.586 67.3144 225.559 67.0823 225.494 66.8599C225.464 66.7438 225.402 66.6386 225.315 66.556C225.27 66.5125 225.217 66.4786 225.158 66.4564C225.1 66.4342 225.038 66.4243 224.975 66.4271H225.003C224.925 66.4157 224.846 66.4275 224.775 66.4611C224.704 66.4947 224.644 66.5485 224.604 66.6158C224.536 66.7257 224.489 66.8476 224.466 66.975C224.428 67.2033 224.406 67.4341 224.402 67.6656C224.402 68.1261 224.402 68.5266 224.402 68.918C224.445 69.5795 224.53 70.2377 224.654 70.8887C224.732 71.4228 224.792 71.8372 224.819 72.118C224.828 72.1672 224.82 72.2179 224.795 72.2616C224.771 72.3052 224.733 72.3391 224.686 72.3575C224.549 72.3713 224.507 72.3759 224.512 72.3805Z"
            fill="#A36957" />
        <path
            d="M194.629 95.8763C193.734 95.8571 192.84 95.9609 191.973 96.1848C189.601 96.8109 185.513 99.2973 185.343 102.368H188.316C188.316 102.368 186.651 105.923 187.137 105.591C188.408 104.735 190.931 102.161 190.931 102.161L194.629 95.8763Z"
            fill="#B78876" />
        <path
            d="M235.156 42.36C235.088 42.36 234.821 39.9013 234.555 36.8348C234.289 33.7683 234.124 31.3096 234.188 31.3096C234.252 31.3096 234.523 33.7683 234.789 36.8348C235.055 39.9013 235.221 42.36 235.156 42.36Z"
            fill="#263238" />
        <path
            d="M248.191 31.4994C248.242 31.5362 246.237 34.46 243.709 38.0283C241.181 41.5967 239.084 44.4744 239.029 44.4192C238.974 44.3639 240.983 41.4586 243.512 37.8902C246.04 34.3218 248.136 31.4625 248.191 31.4994Z"
            fill="#263238" />
        <path
            d="M253.605 44.7495C253.605 44.814 251.274 45.3527 248.375 45.9513C245.475 46.5498 243.108 46.9826 243.094 46.9182C243.08 46.8537 245.42 46.315 248.324 45.7164C251.229 45.1179 253.573 44.6851 253.605 44.7495Z"
            fill="#263238" />
        <path
            d="M97.576 107.99L81.3339 191.697L79.2234 202.656L187.504 202.131C192.367 202.108 196.68 197.775 198.235 191.338L217.441 112.314C218.63 107.429 216.024 102.345 212.335 102.35L102.715 102.465C100.329 102.461 98.1908 104.726 97.576 107.99Z"
            fill="#0898A0" />
        <g opacity="0.5">
            <path
                d="M97.576 107.99L81.3339 191.697L79.2234 202.656L187.504 202.131C192.367 202.108 196.68 197.775 198.235 191.338L217.441 112.314C218.63 107.429 216.024 102.345 212.335 102.35L102.715 102.465C100.329 102.461 98.1908 104.726 97.576 107.99Z"
                fill="black" opacity="0.5" />
        </g>
        <path
            d="M177.13 186.015L165.66 93.2793C165.201 89.4807 162.177 86.6444 158.612 86.6583L133.469 86.7365C132.535 86.7471 131.612 86.9485 130.758 87.3285C129.904 87.7084 129.136 88.259 128.5 88.9466L116.571 101.687L46.6476 102.064C42.376 102.087 39.0909 106.148 39.6553 110.707L50.3044 196.417C50.7632 200.211 53.7868 203.042 57.3426 203.038L179.227 202.794C192.799 203.074 194.097 199.055 194.097 199.055C178.516 202.513 177.13 186.038 177.13 186.015Z"
            fill="#0898A0" />
        <g opacity="0.5">
            <path
                d="M124.573 167.469L120.462 171.898L88.8035 143.315L92.9144 138.885L124.573 167.469Z"
                fill="white" opacity="0.5" />
            <path
                d="M118.741 137.904L123.283 142.007L94.635 172.879L90.0928 168.776L118.741 137.904Z"
                fill="white" opacity="0.5" />
        </g>
        <path
            d="M194.533 47.7839C194.384 47.7211 194.257 47.6172 194.165 47.4843C194.073 47.3514 194.021 47.195 194.014 47.0334L193.831 42.7606C193.824 42.6278 193.849 42.4953 193.902 42.3737C193.955 42.252 194.036 42.1445 194.138 42.0596C194.24 41.9747 194.36 41.9148 194.489 41.8847C194.618 41.8545 194.753 41.8549 194.881 41.8857C195.237 41.9627 195.604 41.966 195.961 41.8955C196.317 41.8251 196.656 41.6823 196.955 41.476C197.231 41.3007 197.468 41.0705 197.652 40.7997C197.836 40.5289 197.963 40.2231 198.024 39.9013C198.066 39.5754 198.042 39.2445 197.954 38.9281C197.865 38.6117 197.715 38.3164 197.51 38.0595C197.295 37.7673 197.025 37.5205 196.715 37.3333C196.405 37.146 196.061 37.022 195.703 36.9683C194.981 36.928 194.266 37.1334 193.675 37.5512C193.084 37.969 192.651 38.5748 192.445 39.2705C192.377 39.4813 192.23 39.6574 192.035 39.7622C191.84 39.867 191.613 39.8924 191.4 39.833C191.187 39.7737 191.005 39.6342 190.892 39.4436C190.779 39.2531 190.744 39.0261 190.793 38.81C191.106 37.7158 191.784 36.7628 192.714 36.1112C193.644 35.4597 194.769 35.1494 195.9 35.2325C196.489 35.3112 197.056 35.5078 197.567 35.8108C198.079 36.1137 198.524 36.5168 198.878 36.9959C199.221 37.44 199.473 37.9488 199.617 38.4921C199.761 39.0355 199.795 39.6023 199.717 40.1591C199.613 40.7151 199.396 41.2438 199.081 41.7126C198.765 42.1814 198.357 42.5803 197.882 42.8849C197.194 43.3499 196.39 43.6131 195.56 43.6446L195.703 46.9413C195.708 47.0862 195.677 47.23 195.612 47.3595C195.547 47.489 195.451 47.6 195.332 47.6822C195.213 47.7644 195.075 47.8152 194.931 47.8297C194.788 47.8443 194.643 47.8222 194.51 47.7655L194.533 47.7839Z"
            fill="#0898A0" />
        <path
            d="M195.79 49.5337C195.8 49.6727 195.768 49.8115 195.699 49.9325C195.63 50.0535 195.527 50.1512 195.403 50.2134C195.278 50.2755 195.138 50.2992 195.001 50.2815C194.863 50.2638 194.733 50.2054 194.629 50.1139C194.524 50.0223 194.449 49.9017 194.412 49.7671C194.376 49.6326 194.38 49.4903 194.424 49.3582C194.469 49.2261 194.551 49.1101 194.661 49.0249C194.771 48.9398 194.904 48.8893 195.042 48.8799C195.134 48.873 195.227 48.8845 195.314 48.9137C195.402 48.9429 195.482 48.9893 195.552 49.0501C195.622 49.1109 195.678 49.185 195.719 49.268C195.76 49.351 195.784 49.4413 195.79 49.5337Z"
            fill="#0898A0" />
        <path
            d="M179.791 41.7569C179.811 41.6658 179.825 41.5735 179.832 41.4806C179.832 41.2781 179.883 41.0202 179.92 40.6565C179.965 40.2099 180.04 39.7669 180.144 39.3304C180.204 39.0726 180.236 38.7871 180.328 38.497C180.42 38.207 180.511 37.8939 180.612 37.5762C181.144 36.0021 181.918 34.5214 182.906 33.1882C184.202 31.4619 185.845 30.0281 187.729 28.9798C188.801 28.3733 189.942 27.9002 191.128 27.5709C192.408 27.2304 193.727 27.0571 195.051 27.0552C195.749 27.044 196.446 27.0809 197.139 27.1657C197.492 27.2026 197.841 27.2947 198.194 27.3545C198.551 27.4159 198.904 27.5021 199.249 27.6124C200.696 28.0179 202.071 28.6437 203.328 29.4679C206.123 31.2872 208.252 33.9701 209.394 37.1111C210.008 38.7937 210.319 40.5727 210.311 42.3647C210.33 44.2107 210.005 46.0441 209.352 47.7702L209.146 48.2951L209.118 48.3641L209.146 48.4332C210.298 51.0899 211.44 53.7006 212.518 56.2284L212.711 56.0074L205.829 53.3599L205.746 53.3276L205.677 53.3921C203.857 55.1623 201.628 56.4531 199.19 57.1492C197.106 57.7248 194.925 57.8505 192.79 57.5179C190.654 57.1854 188.613 56.4022 186.802 55.22C185.318 54.2435 184.01 53.0214 182.934 51.6056C181.374 49.5391 180.364 47.1086 179.998 44.5425C179.942 44.0821 179.897 43.6953 179.855 43.3454C179.814 42.9955 179.855 42.71 179.832 42.466C179.809 42.2219 179.832 42.0608 179.832 41.9273C179.855 41.9238 179.876 41.9118 179.89 41.8936C179.905 41.8754 179.912 41.8525 179.91 41.8293C179.908 41.8061 179.898 41.7845 179.881 41.7687C179.864 41.7529 179.842 41.7441 179.819 41.7441C179.795 41.7441 179.773 41.7529 179.756 41.7687C179.739 41.7845 179.729 41.8061 179.727 41.8293C179.725 41.8525 179.732 41.8754 179.747 41.8936C179.761 41.9118 179.782 41.9238 179.805 41.9273C179.805 42.0608 179.805 42.2404 179.805 42.466C179.805 42.6916 179.805 43.0047 179.805 43.3546C179.805 43.7045 179.883 44.1051 179.929 44.561C180.08 45.6684 180.342 46.7576 180.713 47.8116C181.238 49.2036 181.945 50.5196 182.815 51.7253C183.895 53.1663 185.212 54.412 186.71 55.4088C188.544 56.6205 190.614 57.427 192.782 57.7747C194.95 58.1224 197.167 58.0033 199.286 57.4255C201.754 56.7222 204.01 55.419 205.856 53.6315L205.705 53.6637L212.587 56.3251L212.931 56.4586L212.78 56.104C211.688 53.5763 210.559 50.9702 209.412 48.3089V48.4424L209.623 47.9037C210.293 46.14 210.626 44.2657 210.605 42.3785C210.619 40.5484 210.309 38.7305 209.687 37.0098C208.521 33.8062 206.345 31.0723 203.489 29.2239C202.2 28.3805 200.788 27.7436 199.304 27.3361C198.953 27.2246 198.595 27.1399 198.231 27.0829C197.873 27.0184 197.52 26.9263 197.162 26.8941C196.46 26.8067 195.754 26.7667 195.047 26.7744C193.701 26.7801 192.362 26.9627 191.064 27.3177C189.862 27.6602 188.706 28.1455 187.618 28.7634C185.716 29.8374 184.063 31.3049 182.769 33.0685C181.783 34.4238 181.019 35.9284 180.507 37.5255C180.41 37.857 180.319 38.1747 180.236 38.4464C180.163 38.7239 180.105 39.0052 180.062 39.289C179.963 39.7284 179.899 40.1748 179.869 40.6242C179.842 40.9788 179.823 41.2504 179.809 41.453C179.79 41.5531 179.784 41.6552 179.791 41.7569Z"
            fill="#263238" />
    </g>
    <defs>
        <clipPath id="clip0">
            <rect fill="white" height="204" width="276" />
        </clipPath>
    </defs>
</svg>
