<svg fill="none" height="324" viewBox="0 0 324 324" width="324" xmlns="http://www.w3.org/2000/svg">
    <path
        d="M244.003 25.0814C254.791 40.4367 242.14 65.3295 258.149 76.8751C273.733 88.1198 292.881 69.691 307.563 79.3671C329.349 93.7217 325.37 159.403 293.517 200.212C283.939 212.479 275.934 217.26 272.39 231.14C264.778 260.944 291.53 278.673 286.443 293.414C274.978 326.61 98.6881 354.456 27.9576 254.713C-5.07982 208.127 -10.0222 140.856 19.4952 89.7633C72.8267 -2.56343 219.797 -9.36704 244.003 25.0814Z"
        fill="#F4F7FA" />
    <path
        d="M178.171 203.435C151.393 191.381 140.446 155.927 149.564 143.826C154.307 137.533 162.514 140.161 166.522 132.966C170.962 124.996 163.081 117.829 160.063 99.0734C158.502 89.3826 155.673 71.8136 164.556 63.5016C173.366 55.2612 184.909 64.3478 194.881 56.0052C204.309 48.1146 197.571 36.9915 208.185 23.1344C209.173 21.8452 220.459 7.47588 232.417 9.718C244.566 11.9965 253.115 30.6172 249.99 44.1574C247.15 56.4595 235.508 60.954 237.625 67.3759C239.959 74.4533 254.862 71.315 257.962 78.356C262.442 88.5352 234.574 102.518 237.528 119.485C239.265 129.461 249.68 129.099 254.607 141.114C260.966 156.621 251.426 176.265 241.783 187.115C227.808 202.846 201.381 213.883 178.171 203.435Z"
        fill="#92BCB5" />
    <g style="mix-blend-mode:soft-light">
        <g style="mix-blend-mode:soft-light">
            <path
                d="M193.39 216.633L192.46 216.591C194.114 180.762 197.694 147.086 203.103 116.498C207.432 92.0212 212.928 69.4546 219.456 49.4243C230.572 15.2905 240.955 0.148793 241.057 0L241.824 0.525888C241.721 0.674681 231.398 15.746 220.321 49.773C210.104 81.1843 197.133 135.629 193.39 216.633Z"
                fill="white" />
        </g>
        <g style="mix-blend-mode:soft-light">
            <path
                d="M218.512 52.7345C207.688 26.1187 212.08 1.68366 212.126 1.43945L213.04 1.60869C212.994 1.85062 208.655 26.029 219.373 52.3869L218.512 52.7345Z"
                fill="white" />
        </g>
        <g style="mix-blend-mode:soft-light">
            <path
                d="M202.244 120.868C181.964 96.9584 173.696 78.7398 170.331 67.6666C166.668 55.6041 167.818 49.2957 167.867 49.0322L168.781 49.2071C168.769 49.2696 167.626 55.62 171.251 67.494C174.601 78.4672 182.82 96.5313 202.953 120.267L202.244 120.868Z"
                fill="white" />
        </g>
        <g style="mix-blend-mode:soft-light">
            <path
                d="M194.584 186.222C150.589 153.416 142.686 122.152 142.61 121.839L143.517 121.625C143.536 121.703 145.609 129.802 153.313 141.943C160.098 152.635 172.862 168.862 195.143 185.482L194.584 186.222Z"
                fill="white" />
        </g>
        <g style="mix-blend-mode:soft-light">
            <path
                d="M213.883 109.3C210.828 110.493 207.706 111.509 204.532 112.344L204.294 111.448C225.401 105.92 241.76 92.5738 251.772 82.3571C262.625 71.2805 268.539 61.4011 268.597 61.3022L269.397 61.7736C269.338 61.8724 263.361 71.8484 252.437 83.0033C243.875 91.7424 230.699 102.752 213.883 109.3Z"
                fill="white" />
        </g>
        <g style="mix-blend-mode:soft-light">
            <path
                d="M201.126 172.506C199.505 173.137 197.839 173.718 196.126 174.251L195.849 173.366C217.576 166.641 231.772 151.191 239.856 139.414C248.621 126.644 252.284 115.334 252.319 115.221L253.208 115.501C253.171 115.615 249.467 127.051 240.626 139.933C233.094 150.907 220.306 165.036 201.126 172.506Z"
                fill="white" />
        </g>
    </g>
    <path
        d="M169.045 66.7603V197.379L154.139 193.422V79.1635L167.696 67.8847L168.875 66.9011L169.045 66.7603Z"
        fill="#97A6B7" />
    <path d="M210.475 66.6318H169.045V197.379H210.475V66.6318Z" fill="#F4F7FA" />
    <path d="M182.199 81.0728H176.938V188.793H182.199V81.0728Z" fill="#97A6B7" />
    <path d="M193.378 81.0728H187.897V188.793H193.378V81.0728Z" fill="#97A6B7" />
    <path d="M204.339 81.0728H198.858V188.793H204.339V81.0728Z" fill="#97A6B7" />
    <g style="mix-blend-mode:multiply" opacity="0.5">
        <path d="M182.199 81.0728H180.445V188.793H182.199V81.0728Z" fill="#97A6B7" />
    </g>
    <g style="mix-blend-mode:multiply" opacity="0.5">
        <path d="M193.378 81.0728H191.624V188.793H193.378V81.0728Z" fill="#97A6B7" />
    </g>
    <g style="mix-blend-mode:multiply" opacity="0.5">
        <path d="M204.557 81.0728H202.803V188.793H204.557V81.0728Z" fill="#97A6B7" />
    </g>
    <g style="mix-blend-mode:multiply" opacity="0.1">
        <path
            d="M210.476 197.371V197.379H169.045L154.139 193.421V180.132C161.044 165.332 158.772 159.178 160.262 148.199C161.717 137.481 158.646 81.0103 167.696 67.8847C167.997 67.4361 168.341 67.0177 168.724 66.6353C168.775 66.725 168.826 66.8147 168.876 66.9044L169.046 67.2088C173.756 75.5958 175.913 79.6007 176.938 83.8589C177.938 88.007 177.863 92.3947 178.025 101.312C178.227 112.28 178.185 121.822 180.446 128.39C180.879 129.701 181.468 130.956 182.2 132.129C183.571 134.281 185.407 135.878 187.898 136.809C188.175 136.915 188.457 137.012 188.75 137.099C189.766 137.411 190.733 137.861 191.625 138.437C192.24 138.824 192.826 139.255 193.379 139.725C195.314 141.344 197.163 143.569 198.863 146.274C200.396 148.756 201.716 151.362 202.808 154.064C203.349 155.383 203.861 156.756 204.342 158.182C204.418 158.4 204.49 158.619 204.562 158.842C207.245 167.053 208.837 176.788 208.696 186.703C208.63 191.017 209.314 194.491 210.476 197.371Z"
            fill="#97A6B7" />
    </g>
    <path d="M163.456 13.6641H99.8855V206.858H163.456V13.6641Z" fill="url(#paint0_linear)" />
    <path d="M158.634 32.0073H104.708V44.1061H158.634V32.0073Z" fill="#97A6B7" />
    <path d="M158.634 53.4736H104.708V65.5725H158.634V53.4736Z" fill="#97A6B7" />
    <path d="M158.634 74.9395H104.708V87.0383H158.634V74.9395Z" fill="#97A6B7" />
    <path d="M158.634 96.4053H104.708V108.504H158.634V96.4053Z" fill="#97A6B7" />
    <path d="M158.634 117.871H104.708V129.97H158.634V117.871Z" fill="#97A6B7" />
    <path d="M158.634 139.337H104.708V151.436H158.634V139.337Z" fill="#97A6B7" />
    <path d="M158.634 160.804H104.708V172.903H158.634V160.804Z" fill="#97A6B7" />
    <path
        d="M99.8854 13.6641V206.858L82.7869 201.004V32.0077L99.3895 14.1945L99.8145 13.7379L99.8854 13.6641Z"
        fill="#97A6B7" />
    <g style="mix-blend-mode:multiply" opacity="0.5">
        <path d="M88.048 61.2788H77.5256V64.0105H88.048V61.2788Z" fill="#97A6B7" />
    </g>
    <g style="mix-blend-mode:multiply" opacity="0.5">
        <path d="M88.048 95.2349H77.5256V97.9665H88.048V95.2349Z" fill="#97A6B7" />
    </g>
    <g style="mix-blend-mode:multiply" opacity="0.5">
        <path d="M88.048 129.19H77.5256V131.922H88.048V129.19Z" fill="#97A6B7" />
    </g>
    <g style="mix-blend-mode:multiply" opacity="0.5">
        <path d="M88.048 163.146H77.5256V165.877H88.048V163.146Z" fill="#97A6B7" />
    </g>
    <g style="mix-blend-mode:multiply" opacity="0.5">
        <path d="M158.634 32.0073H104.708V34.3494H158.634V32.0073Z" fill="#97A6B7" />
    </g>
    <g style="mix-blend-mode:multiply" opacity="0.5">
        <path d="M158.634 53.4736H104.708V55.8157H158.634V53.4736Z" fill="#97A6B7" />
    </g>
    <g style="mix-blend-mode:multiply" opacity="0.5">
        <path d="M158.634 74.9395H104.708V77.2815H158.634V74.9395Z" fill="#97A6B7" />
    </g>
    <g style="mix-blend-mode:multiply" opacity="0.5">
        <path d="M158.634 96.4053H104.708V98.7473H158.634V96.4053Z" fill="#97A6B7" />
    </g>
    <g style="mix-blend-mode:multiply" opacity="0.5">
        <path d="M158.634 117.871H104.708V120.213H158.634V117.871Z" fill="#97A6B7" />
    </g>
    <g style="mix-blend-mode:multiply" opacity="0.5">
        <path d="M158.634 139.337H104.708V141.679H158.634V139.337Z" fill="#97A6B7" />
    </g>
    <g style="mix-blend-mode:multiply" opacity="0.5">
        <path d="M158.634 160.804H104.708V163.146H158.634V160.804Z" fill="#97A6B7" />
    </g>
    <g style="mix-blend-mode:multiply" opacity="0.1">
        <path
            d="M161.345 206.858H99.8854L82.7869 201.004V163.579C83.4598 161.244 84.1807 159.028 84.9576 156.991C92.1633 137.909 89.8178 130.159 91.3258 116.198C92.8111 102.417 89.5675 28.4925 99.3941 14.2004C99.5244 14.0141 99.6535 13.838 99.7871 13.6699C99.7974 13.6938 99.8088 13.721 99.8203 13.7437C99.8443 13.7983 99.8682 13.8494 99.89 13.9005C103.768 22.5805 105.958 27.5872 107.213 32.0135C107.442 32.8086 107.635 33.5821 107.801 34.3556C108.446 37.294 108.715 40.221 108.862 44.1123C108.954 46.7077 108.991 49.7324 109.038 53.4795C109.046 54.2291 109.056 55.0098 109.069 55.8216C109.069 56.2895 109.081 56.77 109.088 57.2573C109.129 60.115 109.16 62.8932 109.202 65.5783C109.255 68.8495 109.328 71.9832 109.457 74.9455C109.493 75.7383 109.531 76.519 109.571 77.2876C109.775 80.8347 110.087 84.1025 110.584 87.0443C111.204 90.7369 112.116 93.8945 113.475 96.4115C113.914 97.2393 114.432 98.0236 115.021 98.7535C116.268 100.325 117.922 101.53 119.806 102.238C122.244 103.147 124.619 105.333 126.833 108.51C128.603 111.043 130.261 114.212 131.777 117.877C132.088 118.635 132.395 119.419 132.691 120.22C133.872 123.417 134.883 126.673 135.718 129.976C136.481 132.954 137.151 136.093 137.717 139.343C137.853 140.116 137.982 140.896 138.103 141.686C138.596 144.85 138.988 148.118 139.265 151.442C139.523 154.521 139.685 157.652 139.737 160.809C139.749 161.586 139.755 162.367 139.756 163.151C139.756 163.631 139.753 164.112 139.747 164.595C139.697 167.377 139.888 170.159 140.318 172.908C143.501 192.441 158.8 193.971 161.345 206.858Z"
            fill="#97A6B7" />
    </g>
    <g style="mix-blend-mode:multiply" opacity="0.5">
        <path d="M60.4158 61.0137H49.6741V63.7453H60.4158V61.0137Z" fill="#97A6B7" />
    </g>
    <g style="mix-blend-mode:multiply" opacity="0.5">
        <path d="M60.4158 94.9688H49.6741V97.7004H60.4158V94.9688Z" fill="#97A6B7" />
    </g>
    <g style="mix-blend-mode:multiply" opacity="0.5">
        <path d="M60.4158 128.923H49.6741V131.655H60.4158V128.923Z" fill="#97A6B7" />
    </g>
    <path d="M38.7267 42.5459V206.858L21.6282 201.877V58.1453L38.7267 42.5459Z" fill="#97A6B7" />
    <path d="M92.2134 42.9355H38.7266V206.857H92.2134V42.9355Z" fill="#F4F7FA" />
    <path d="M58.8939 62.4497H48.3716V88.2091H58.8939V62.4497Z" fill="#97A6B7" />
    <path d="M73.5808 62.4497H62.8391V88.2091H73.5808V62.4497Z" fill="#97A6B7" />
    <path d="M88.048 62.4497H77.5256V88.2091H88.048V62.4497Z" fill="#97A6B7" />
    <path d="M58.8939 96.4053H48.3716V122.165H58.8939V96.4053Z" fill="#97A6B7" />
    <path d="M73.5808 96.4053H62.8391V122.165H73.5808V96.4053Z" fill="#97A6B7" />
    <path d="M88.048 96.4053H77.5256V122.165H88.048V96.4053Z" fill="#97A6B7" />
    <path d="M58.8939 130.361H48.3716V156.12H58.8939V130.361Z" fill="#97A6B7" />
    <path d="M73.5808 130.361H62.8391V156.12H73.5808V130.361Z" fill="#97A6B7" />
    <path d="M88.048 130.361H77.5256V156.12H88.048V130.361Z" fill="#97A6B7" />
    <path d="M58.8939 164.316H48.3716V190.076H58.8939V164.316Z" fill="#97A6B7" />
    <path d="M73.5808 164.316H62.8391V190.076H73.5808V164.316Z" fill="#97A6B7" />
    <path d="M88.048 164.316H77.5256V190.076H88.048V164.316Z" fill="#97A6B7" />
    <g style="mix-blend-mode:multiply" opacity="0.5">
        <path d="M58.8939 62.4497H48.3716V65.1814H58.8939V62.4497Z" fill="#97A6B7" />
    </g>
    <g style="mix-blend-mode:multiply" opacity="0.5">
        <path d="M58.8939 96.4053H48.3716V99.1369H58.8939V96.4053Z" fill="#97A6B7" />
    </g>
    <g style="mix-blend-mode:multiply" opacity="0.5">
        <path d="M58.8939 130.361H48.3716V133.093H58.8939V130.361Z" fill="#97A6B7" />
    </g>
    <g style="mix-blend-mode:multiply" opacity="0.5">
        <path d="M58.8939 164.316H48.3716V167.048H58.8939V164.316Z" fill="#97A6B7" />
    </g>
    <g style="mix-blend-mode:multiply" opacity="0.1">
        <path
            d="M92.2136 204.138V206.858H38.7267L21.6282 201.877V177.555C22.7707 172.367 24.1531 167.318 25.7926 163.146C32.0763 147.143 30.0301 140.637 31.3451 128.929C32.6601 117.221 29.7387 53.7373 38.7267 42.9355C47.1286 61.0179 46.5459 60.2376 46.8384 79.4944C46.9938 89.7941 46.9823 98.9034 48.3728 105.667C49.5781 111.545 51.8425 115.647 56.192 117.22C57.1726 117.592 58.0856 118.121 58.8951 118.785C61.7228 121.029 64.3791 125.084 66.6343 130.361C69.598 137.29 71.8715 146.32 72.9306 156.121C73.222 158.801 73.4219 161.545 73.5179 164.317C73.551 165.237 73.5727 166.166 73.5818 167.095C73.5902 167.903 73.5902 168.711 73.5818 169.519C73.5773 169.804 73.5773 170.084 73.5818 170.362C73.623 177.364 75.2453 182.191 77.5269 185.895C78.4546 187.385 79.5219 188.785 80.7144 190.075C85.249 195.048 90.5661 198.049 92.2136 204.138Z"
            fill="#97A6B7" />
    </g>
    <path
        d="M169.295 193.151C151.766 169.691 159.502 133.406 173.381 127.23C180.6 124.014 186.493 130.272 193.509 125.917C201.278 121.089 197.891 111.021 204.406 93.165C207.773 83.9398 213.879 67.2103 225.701 64.231C237.425 61.2778 243.084 74.7942 255.875 72.3067C267.971 69.9567 267.508 56.9799 283.555 49.9855C285.047 49.3346 301.93 42.2164 311.29 49.9468C320.8 57.7999 319.186 78.2051 309.843 88.5365C301.355 97.923 288.981 96.234 287.698 102.872C286.284 110.187 300.846 114.632 300.12 122.284C299.068 133.346 267.875 132.127 262.176 148.387C258.824 157.948 268.108 162.655 266.551 175.533C264.541 192.16 246.61 204.733 232.879 209.569C212.982 216.578 184.487 213.482 169.295 193.151Z"
        fill="#D8DEE8" />
    <g style="mix-blend-mode:soft-light">
        <g style="mix-blend-mode:soft-light">
            <path
                d="M176.164 212.029L175.364 211.543C194.3 181.014 213.866 153.297 233.531 129.162C249.264 109.853 265.091 92.7739 280.571 78.4079C306.954 53.9263 323.423 45.6961 323.586 45.6155L324 46.4458C323.838 46.5264 307.454 54.7203 281.156 79.1303C256.892 101.662 218.974 143.007 176.164 212.029Z"
                fill="white" />
        </g>
        <g style="mix-blend-mode:soft-light">
            <path
                d="M278.133 80.843C281.662 52.3497 297.43 33.1042 297.589 32.9111L298.308 33.5006C298.15 33.6903 282.552 52.7404 279.057 80.9543L278.133 80.843Z"
                fill="white" />
        </g>
        <g style="mix-blend-mode:soft-light">
            <path
                d="M230.648 132.565C224.593 101.877 226.253 81.9594 228.718 70.6534C231.401 58.3388 235.487 53.3775 235.659 53.1719L236.375 53.7659C236.333 53.8148 232.234 58.8169 229.606 70.9498C227.179 82.1616 225.547 101.922 231.562 132.387L230.648 132.565Z"
                fill="white" />
        </g>
        <g style="mix-blend-mode:soft-light">
            <path
                d="M192.048 186.011C169.596 136.101 177.949 104.951 178.035 104.643L178.932 104.893C178.911 104.97 176.771 113.05 177.58 127.382C178.292 140.004 181.529 160.355 192.899 185.631L192.048 186.011Z"
                fill="white" />
        </g>
        <g style="mix-blend-mode:soft-light">
            <path
                d="M246.473 128.068C243.219 127.636 239.993 127.017 236.811 126.216L237.04 125.319C258.194 130.657 279.011 126.892 292.749 122.787C307.64 118.337 317.639 112.555 317.737 112.497L318.209 113.292C318.108 113.35 308.015 119.189 293.017 123.67C281.267 127.187 264.371 130.453 246.473 128.068Z"
                fill="white" />
        </g>
        <g style="mix-blend-mode:soft-light">
            <path
                d="M204.465 177.176C202.739 176.948 200.997 176.653 199.24 176.29L199.43 175.381C221.708 179.983 241.664 173.324 254.481 166.927C268.379 159.992 277.102 151.872 277.186 151.791L277.826 152.465C277.739 152.546 268.915 160.756 254.899 167.755C242.959 173.716 224.881 179.898 204.465 177.176Z"
                fill="white" />
        </g>
    </g>
    <path
        d="M130.641 261.24L150.225 257.18L163.265 233.349L145.311 225.379C145.311 225.379 125.66 238.198 126.022 238.654C126.384 239.109 130.641 261.24 130.641 261.24Z"
        fill="url(#paint1_linear)" />
    <path
        d="M37.9714 244.44L63.6614 242.538L56.5757 216.802L38.5106 219.302L32.2783 232.719L37.9714 244.44Z"
        fill="url(#paint2_linear)" />
    <path
        d="M168.936 255.756C169.252 245.429 164.567 236.907 158.473 236.723C152.379 236.539 147.182 244.762 146.867 255.089C146.551 265.417 151.236 273.938 157.33 274.122C163.425 274.306 168.621 266.084 168.936 255.756Z"
        fill="#323232" />
    <path d="M144.694 274.69L158.492 274.078V236.749L144.816 237.341L144.694 274.69Z"
        fill="#323232" />
    <path
        d="M155.262 256.348C155.578 246.02 150.893 237.499 144.799 237.315C138.705 237.131 133.508 245.354 133.193 255.681C132.877 266.009 137.562 274.53 143.656 274.714C149.75 274.898 154.947 266.675 155.262 256.348Z"
        fill="#323232" />
    <g opacity="0.6">
        <path style="mix-blend-mode:multiply"
            d="M149.219 256.189C149.077 260.846 146.733 264.554 143.984 264.47C141.236 264.386 139.124 260.545 139.267 255.888C139.41 251.231 141.753 247.522 144.501 247.605C147.249 247.688 149.362 251.532 149.219 256.189Z"
            fill="white" />
    </g>
    <path
        d="M68.0616 238.384C68.3214 229.932 64.4883 222.957 59.5002 222.806C54.5121 222.654 50.2579 229.383 49.9981 237.835C49.7384 246.287 53.5715 253.262 58.5596 253.413C63.5477 253.565 67.8019 246.836 68.0616 238.384Z"
        fill="#323232" />
    <path d="M48.1982 253.832L59.4906 253.406L59.4906 222.78L48.2988 223.265L48.1982 253.832Z"
        fill="#323232" />
    <path
        d="M56.8683 238.868C57.128 230.416 53.295 223.442 48.3069 223.29C43.3188 223.139 39.0645 229.868 38.8048 238.32C38.545 246.772 42.3781 253.746 47.3662 253.898C52.3543 254.049 56.6085 247.32 56.8683 238.868Z"
        fill="#323232" />
    <g opacity="0.6">
        <path style="mix-blend-mode:multiply"
            d="M51.8932 238.667C52.0097 234.855 50.2809 231.71 48.0319 231.642C45.7828 231.574 43.8652 234.609 43.7487 238.421C43.6323 242.232 45.3611 245.377 47.6101 245.445C49.8591 245.513 51.7768 242.478 51.8932 238.667Z"
            fill="url(#paint3_linear)" />
    </g>
    <path
        d="M299.744 167.17L301.268 197.163L302.057 197.654C302.409 197.874 302.813 197.997 303.228 198.011C303.642 198.026 304.054 197.931 304.42 197.737C304.786 197.543 305.095 197.256 305.314 196.905C305.533 196.555 305.655 196.153 305.668 195.74L306.353 173.291C306.394 171.961 306.112 170.64 305.532 169.441C304.951 168.241 304.089 167.198 303.018 166.4L302.263 165.832C302.023 165.654 301.737 165.547 301.438 165.525C301.139 165.503 300.84 165.565 300.576 165.706C300.312 165.846 300.093 166.058 299.946 166.317C299.798 166.577 299.728 166.872 299.744 167.17Z"
        fill="#323232" />
    <path
        d="M296.656 211.118L303.705 197.248C303.806 197.049 303.841 196.823 303.804 196.604L303.506 194.799C303.47 194.588 303.371 194.392 303.221 194.239C303.07 194.086 302.877 193.982 302.665 193.941C302.454 193.901 302.235 193.925 302.038 194.012C301.841 194.098 301.676 194.242 301.564 194.425L294.958 205.257L296.656 211.118Z"
        fill="#323232" />
    <path
        d="M106.719 146.593L114.401 136.753C117.332 133 121.368 130.251 125.947 128.89C141.872 124.149 181.43 113.616 213.873 115.191C255.541 117.213 280.077 127.015 287.371 138.361C294.664 149.708 307.516 218.969 297.104 265.482C297.104 265.482 259.032 283.45 226.367 278.252L106.719 146.593Z"
        fill="#59B1B0" />
    <path
        d="M216.368 129.782L225.596 228.206C225.596 228.206 228.468 234.296 235.128 234.202C240.429 234.127 281.191 234.763 300.918 231.8C302.048 190.911 293.035 147.176 287.371 138.363C286.656 137.267 285.841 136.24 284.934 135.296C266.346 130.982 239.694 126.638 216.368 129.782Z"
        fill="url(#paint4_linear)" />
    <g style="mix-blend-mode:overlay" opacity="0.3">
        <path
            d="M287.37 138.363C286.656 137.267 285.84 136.24 284.933 135.296C272.13 132.327 255.498 129.343 238.763 128.8C234.193 137.037 233.83 143.262 235.061 147.98C238.707 161.941 256.74 164.281 267.578 184.91C273.825 196.802 268.035 203.025 274.244 214.745C278.729 223.203 285.63 228.921 292.131 232.805C295.339 232.53 298.313 232.201 300.918 231.811C302.048 190.913 293.035 147.176 287.37 138.363Z"
            fill="white" />
    </g>
    <path
        d="M294.427 246.6C293.968 246.699 293.555 246.948 293.255 247.307C292.954 247.666 292.783 248.114 292.769 248.581L292.426 259.65C292.417 259.962 292.477 260.272 292.604 260.557C292.73 260.843 292.919 261.097 293.157 261.3C293.395 261.503 293.676 261.651 293.979 261.733C294.282 261.814 294.599 261.827 294.908 261.77L297.979 261.208C298.938 256.127 299.645 250.815 300.134 245.373L294.427 246.6Z"
        fill="#EBEBEB" />
    <path
        d="M261.317 264.076L261.104 271.005C261.098 271.224 261.141 271.442 261.23 271.642C261.319 271.843 261.452 272.021 261.62 272.164C261.787 272.306 261.984 272.41 262.197 272.466C262.41 272.523 262.633 272.532 262.85 272.492L279.55 269.392C279.881 269.331 280.181 269.159 280.4 268.905C280.619 268.651 280.744 268.33 280.754 267.995L280.911 262.884C280.917 262.678 280.88 262.473 280.801 262.282C280.723 262.092 280.604 261.92 280.455 261.777C280.305 261.635 280.126 261.526 279.931 261.457C279.736 261.388 279.528 261.36 279.321 261.377L262.678 262.663C262.316 262.691 261.977 262.851 261.726 263.112C261.475 263.372 261.329 263.716 261.317 264.076Z"
        fill="#323232" />
    <path
        d="M261.311 264.271L261.115 270.671C261.108 270.873 261.148 271.075 261.23 271.26C261.312 271.445 261.435 271.61 261.59 271.742C261.745 271.874 261.927 271.969 262.124 272.022C262.321 272.074 262.527 272.082 262.728 272.045L278.151 269.181C278.457 269.125 278.734 268.966 278.937 268.731C279.139 268.496 279.255 268.199 279.264 267.89L279.408 263.17C279.414 262.979 279.38 262.79 279.307 262.614C279.234 262.438 279.125 262.279 278.987 262.148C278.848 262.016 278.684 261.915 278.503 261.851C278.323 261.788 278.131 261.762 277.94 261.777L262.563 262.961C262.229 262.988 261.916 263.136 261.685 263.378C261.454 263.62 261.321 263.938 261.311 264.271Z"
        fill="#EBEBEB" />
    <path
        d="M37.4998 238.255C37.7957 228.588 42.6604 220.892 48.366 221.065C54.0716 221.237 58.4554 229.214 58.1583 238.881C58.0589 242.152 57.434 245.195 56.432 247.787L130.641 261.24C130.517 259.691 130.479 258.136 130.527 256.583C130.95 242.802 137.885 231.831 146.017 232.078C154.149 232.324 160.4 243.695 159.977 257.475C159.892 260.464 159.477 263.435 158.74 266.334L228.833 278.64C228.833 278.64 231.334 151.869 213.946 124.783C212.992 123.312 211.635 122.142 210.035 121.41C208.435 120.678 206.658 120.415 204.914 120.652C186.902 123.025 110.813 134.088 21.337 161.915C19.8292 162.383 18.4849 163.264 17.4593 164.459C16.4336 165.653 15.7683 167.111 15.54 168.664C13.7577 180.861 9.93492 212.009 13.5703 234.186C13.8607 235.947 14.6923 237.576 15.9509 238.849C17.2095 240.122 18.8335 240.977 20.6001 241.296L37.9659 244.444C37.5862 242.404 37.4299 240.329 37.4998 238.255Z"
        fill="#00ABA9" />
    <path
        d="M165.252 137.36C165.245 136.893 165.132 136.433 164.922 136.014C164.713 135.595 164.412 135.228 164.041 134.941C163.671 134.653 163.24 134.451 162.781 134.35C162.321 134.249 161.845 134.251 161.387 134.357L106.882 146.951C106.082 147.136 105.367 147.582 104.851 148.217C104.334 148.852 104.046 149.641 104.033 150.458L103.522 180.323C103.51 181.036 103.645 181.743 103.918 182.402C104.191 183.061 104.597 183.657 105.111 184.155C105.624 184.652 106.235 185.039 106.905 185.293C107.575 185.547 108.29 185.662 109.006 185.631L161.619 183.374C162.786 183.323 163.888 182.822 164.689 181.977C165.491 181.132 165.929 180.009 165.911 178.847L165.252 137.36Z"
        fill="url(#paint5_linear)" />
    <path
        d="M65.0455 156.619L23.3194 166.26C22.0857 166.546 20.9702 167.202 20.1241 168.139C19.2781 169.076 18.7423 170.249 18.5895 171.499L17.1363 183.367C17.0422 184.135 17.1174 184.914 17.3567 185.65C17.596 186.386 17.9936 187.061 18.522 187.629C19.0504 188.197 19.6968 188.644 20.4164 188.938C21.136 189.233 21.9114 189.368 22.6888 189.334L65.6682 187.491C66.605 187.449 67.4881 187.044 68.1287 186.363C68.7692 185.682 69.1163 184.779 69.0956 183.847L68.5552 159.33C68.5456 158.907 68.4413 158.492 68.2499 158.114C68.0585 157.736 67.7848 157.405 67.4487 157.145C67.1126 156.885 66.7225 156.704 66.3068 156.613C65.8911 156.522 65.4602 156.524 65.0455 156.619Z"
        fill="url(#paint6_linear)" />
    <path
        d="M100.883 151.995C100.886 151.561 100.789 151.132 100.6 150.741C100.411 150.35 100.135 150.007 99.7918 149.738C99.4492 149.469 99.0493 149.281 98.6227 149.189C98.196 149.097 97.7539 149.103 97.3299 149.207L73.0725 155.143C72.4397 155.298 71.8789 155.662 71.4824 156.177C71.0859 156.691 70.8775 157.324 70.8915 157.972L72.5676 234.981C72.5825 235.675 72.8518 236.34 73.3249 236.851C73.798 237.362 74.4424 237.683 75.137 237.755L97.1129 240.026C97.5098 240.068 97.9111 240.026 98.291 239.904C98.6709 239.783 99.021 239.583 99.3189 239.319C99.6169 239.055 99.856 238.732 100.021 238.371C100.186 238.009 100.274 237.618 100.278 237.221L100.883 151.995Z"
        fill="url(#paint7_linear)" />
    <path
        d="M213.883 257.753L213.273 241.806L171.659 206.516L173.82 251.432C173.926 253.644 174.806 255.749 176.308 257.384C177.81 259.018 179.84 260.08 182.046 260.386L207.11 263.843C207.972 263.963 208.85 263.893 209.683 263.638C210.515 263.384 211.281 262.951 211.927 262.37C212.573 261.79 213.083 261.075 213.421 260.277C213.759 259.48 213.917 258.618 213.883 257.753Z"
        fill="url(#paint8_linear)" />
    <path
        d="M209.053 131.624C209.022 130.819 208.817 130.031 208.451 129.312C208.085 128.594 207.567 127.963 206.933 127.463C206.298 126.962 205.562 126.604 204.776 126.413C203.989 126.221 203.17 126.202 202.375 126.355L172.237 132.157C171.094 132.376 170.069 132.998 169.349 133.908C168.63 134.819 168.265 135.956 168.321 137.112L170.927 191.281L212.698 226.702L209.053 131.624Z"
        fill="url(#paint9_linear)" />
    <path
        d="M198.212 167.789L200.291 197.184C200.398 198.706 201.532 199.862 202.876 199.82L208.767 199.638L207.587 167.414C207.522 165.618 206.248 164.192 204.664 164.143L201.337 164.043C199.528 163.988 198.067 165.739 198.212 167.789Z"
        fill="#323232" />
    <path
        d="M217.637 203.002L217.538 206.229C217.533 206.409 217.475 206.585 217.372 206.733C217.269 206.882 217.125 206.998 216.957 207.068C216.79 207.137 216.606 207.157 216.427 207.125C216.248 207.093 216.082 207.01 215.95 206.887L205.782 197.433C204.535 196.395 203.74 194.891 203.695 193.276C203.673 192.421 203.854 191.605 204.495 191.186L215.954 199.557C216.494 199.953 216.93 200.473 217.223 201.073C217.516 201.673 217.658 202.335 217.637 203.002Z"
        fill="#323232" />
    <path
        d="M224.322 252.633C224.322 251.972 225.017 251.473 225.782 251.579L229.191 252.051C229.508 252.094 229.828 252.115 230.148 252.111L235.096 251.914C236.671 251.851 237.96 252.993 237.827 254.334L236.342 269.405C236.25 270.339 235.449 271.103 234.374 271.285L232.062 271.675C230.564 271.928 229.026 271.815 227.582 271.345C225.559 270.685 224.224 269.023 224.235 267.18L224.322 252.633Z"
        fill="#EBEBEB" />
    <g style="mix-blend-mode:multiply" opacity="0.3">
        <path style="mix-blend-mode:multiply"
            d="M180.743 230.924C156.192 220.101 135.957 239.084 113.686 224.916C92.7839 211.627 100.09 188.236 78.6398 177.632C61.731 169.275 50.514 180.497 29.7412 174.66C24.5749 173.208 19.8804 170.998 15.6155 168.271C15.5903 168.4 15.564 168.529 15.5446 168.66C13.7623 180.857 9.93956 212.004 13.575 234.181C13.8653 235.943 14.6969 237.572 15.9555 238.845C17.2141 240.118 18.8381 240.973 20.6047 241.292L37.9706 244.44C37.5892 242.402 37.431 240.328 37.4987 238.256C37.7946 228.589 42.6594 220.892 48.365 221.065C54.0706 221.238 58.4543 229.214 58.1573 238.881C58.0579 242.153 57.4329 245.195 56.431 247.787L130.64 261.24C130.516 259.691 130.478 258.136 130.526 256.583C130.949 242.803 137.884 231.831 146.016 232.078C154.148 232.324 160.399 243.695 159.976 257.476C159.891 260.465 159.476 263.436 158.739 266.336L213.906 276.021C204.775 247.031 191.652 235.732 180.743 230.924Z"
            fill="url(#paint10_linear)" opacity="0.3" />
    </g>
    <path
        d="M108.931 263.294C109.919 263.324 110.903 263.336 111.867 263.324C111.868 263.32 111.868 263.316 111.867 263.313C111.065 263.306 110.075 263.3 108.931 263.294Z"
        fill="url(#paint11_linear)" opacity="0.3" />
    <defs>
        <linearGradient gradientUnits="userSpaceOnUse" id="paint0_linear" x1="99.8855" x2="163.456"
            y1="110.262" y2="110.262">
            <stop offset="0.49" stop-color="#EBEFF2" />
            <stop offset="1" stop-color="white" />
        </linearGradient>
        <linearGradient gradientUnits="userSpaceOnUse" id="paint1_linear" x1="85091.8" x2="113665"
            y1="70075.9" y2="70075.9">
            <stop stop-color="#DEDFEA" />
            <stop offset="1" stop-color="#777777" />
        </linearGradient>
        <linearGradient gradientUnits="userSpaceOnUse" id="paint2_linear" x1="71619.9" x2="95694.5"
            y1="54051.6" y2="54051.6">
            <stop stop-color="#DEDFEA" />
            <stop offset="1" stop-color="#777777" />
        </linearGradient>
        <linearGradient gradientUnits="userSpaceOnUse" id="paint3_linear" x1="10532.2" x2="11522.4"
            y1="20816.8" y2="20847.1">
            <stop stop-color="white" />
            <stop offset="1" stop-color="#3E4177" />
        </linearGradient>
        <linearGradient gradientUnits="userSpaceOnUse" id="paint4_linear" x1="193304" x2="258238"
            y1="205634" y2="205634">
            <stop stop-color="#DEDFEA" />
            <stop offset="1" stop-color="#777777" />
        </linearGradient>
        <linearGradient gradientUnits="userSpaceOnUse" id="paint5_linear" x1="142422" x2="190283"
            y1="100175" y2="100175">
            <stop stop-color="#DEDFEA" />
            <stop offset="1" stop-color="#777777" />
        </linearGradient>
        <linearGradient gradientUnits="userSpaceOnUse" id="paint6_linear" x1="118633" x2="158523"
            y1="64033.1" y2="64033.1">
            <stop stop-color="#DEDFEA" />
            <stop offset="1" stop-color="#777777" />
        </linearGradient>
        <linearGradient gradientUnits="userSpaceOnUse" id="paint7_linear" x1="68485.9" x2="91493.6"
            y1="177243" y2="177243">
            <stop stop-color="#DEDFEA" />
            <stop offset="1" stop-color="#777777" />
        </linearGradient>
        <linearGradient gradientUnits="userSpaceOnUse" id="paint8_linear" x1="96498.8" x2="128893"
            y1="111982" y2="111982">
            <stop stop-color="#DEDFEA" />
            <stop offset="1" stop-color="#777777" />
        </linearGradient>
        <linearGradient gradientUnits="userSpaceOnUse" id="paint9_linear" x1="101411" x2="135458"
            y1="195785" y2="195785">
            <stop stop-color="#DEDFEA" />
            <stop offset="1" stop-color="#777777" />
        </linearGradient>
        <linearGradient gradientUnits="userSpaceOnUse" id="paint10_linear" x1="78403" x2="325471"
            y1="202434" y2="501699">
            <stop stop-color="#80EAF9" />
            <stop offset="1" stop-color="#60CBED" />
        </linearGradient>
        <linearGradient gradientUnits="userSpaceOnUse" id="paint11_linear" x1="-15581.5"
            x2="-15581.5" y1="356.973" y2="356.068">
            <stop stop-color="#444B8C" />
            <stop offset="1" stop-color="#3E4177" />
        </linearGradient>
    </defs>
</svg>
