<svg fill="none" height="48" viewBox="0 0 89 48" width="89" xmlns="http://www.w3.org/2000/svg">
    <path
        d="M16.77 12V4.88H19.86C20.6333 4.88 21.23 5.06667 21.65 5.44C22.0767 5.80667 22.29 6.31 22.29 6.95C22.29 7.58333 22.0733 8.08667 21.64 8.46C21.2133 8.83333 20.62 9.02 19.86 9.02H18.06V12H16.77ZM18.06 8.03H19.71C20.1633 8.03 20.5 7.93667 20.72 7.75C20.9467 7.56333 21.06 7.3 21.06 6.96C21.06 6.61333 20.95 6.35 20.73 6.17C20.51 5.98333 20.17 5.89 19.71 5.89H18.06V8.03ZM25.4446 12.07C24.9179 12.07 24.4613 11.9633 24.0746 11.75C23.6946 11.5367 23.4013 11.2367 23.1946 10.85C22.9879 10.4567 22.8846 9.99 22.8846 9.45C22.8846 8.91667 22.9879 8.45333 23.1946 8.06C23.4013 7.66 23.6946 7.35333 24.0746 7.14C24.4613 6.92667 24.9179 6.82 25.4446 6.82C25.9579 6.82 26.4046 6.92667 26.7846 7.14C27.1713 7.35333 27.4679 7.66 27.6746 8.06C27.8879 8.45333 27.9946 8.91667 27.9946 9.45C27.9946 9.99 27.8879 10.4567 27.6746 10.85C27.4679 11.2367 27.1713 11.5367 26.7846 11.75C26.4046 11.9633 25.9579 12.07 25.4446 12.07ZM25.4446 11.11C25.8579 11.11 26.1746 10.9733 26.3946 10.7C26.6213 10.42 26.7346 10.0033 26.7346 9.45C26.7346 8.90333 26.6213 8.49333 26.3946 8.22C26.1746 7.94 25.8579 7.8 25.4446 7.8C25.0246 7.8 24.6979 7.94 24.4646 8.22C24.2379 8.49333 24.1246 8.90333 24.1246 9.45C24.1246 10.0033 24.2379 10.42 24.4646 10.7C24.6913 10.9733 25.0179 11.11 25.4446 11.11ZM30.3945 12L28.4145 6.95H29.7045L31.1245 10.86H30.8745L32.3045 6.95H33.2145L34.6345 10.86H34.4045L35.8245 6.95H37.0345L35.0545 12H33.9645L32.4245 7.93H32.9945L31.4845 12H30.3945ZM42.0745 11.44C41.8345 11.64 41.5378 11.7967 41.1845 11.91C40.8378 12.0167 40.4845 12.07 40.1245 12.07C39.5778 12.07 39.1045 11.9667 38.7045 11.76C38.3111 11.5533 38.0078 11.2533 37.7945 10.86C37.5811 10.4667 37.4745 10 37.4745 9.46C37.4745 8.94 37.5778 8.48333 37.7845 8.09C37.9911 7.69 38.2778 7.38 38.6445 7.16C39.0111 6.93333 39.4345 6.82 39.9145 6.82C40.3811 6.82 40.7811 6.92333 41.1145 7.13C41.4478 7.33 41.7045 7.62 41.8845 8C42.0711 8.38 42.1645 8.83 42.1645 9.35V9.54H38.5745L38.5845 8.87H41.4245L41.0845 9.21C41.0911 8.72333 40.9945 8.35333 40.7945 8.1C40.6011 7.84667 40.3178 7.72 39.9445 7.72C39.5445 7.72 39.2345 7.86333 39.0145 8.15C38.7945 8.43 38.6845 8.83333 38.6845 9.36C38.6845 9.96 38.8078 10.4033 39.0545 10.69C39.3011 10.97 39.6745 11.11 40.1745 11.11C40.4478 11.11 40.7145 11.0667 40.9745 10.98C41.2411 10.8867 41.4878 10.7533 41.7145 10.58L42.0745 11.44ZM43.213 12V8.38C43.213 8.14667 43.2063 7.91 43.193 7.67C43.1863 7.42333 43.1663 7.18333 43.133 6.95H44.313L44.453 8.25L44.313 8.18C44.3996 7.73333 44.5963 7.39667 44.903 7.17C45.2096 6.94333 45.5563 6.83 45.943 6.83C46.043 6.83 46.1363 6.83667 46.223 6.85C46.3096 6.86333 46.3863 6.88333 46.453 6.91L46.433 8.05C46.2263 7.96333 46.0063 7.92 45.773 7.92C45.473 7.92 45.2263 7.98 45.033 8.1C44.8463 8.22 44.703 8.38333 44.603 8.59C44.5096 8.79 44.463 9.01667 44.463 9.27V12H43.213ZM51.3713 11.44C51.1313 11.64 50.8347 11.7967 50.4813 11.91C50.1347 12.0167 49.7813 12.07 49.4213 12.07C48.8747 12.07 48.4013 11.9667 48.0013 11.76C47.608 11.5533 47.3047 11.2533 47.0913 10.86C46.878 10.4667 46.7713 10 46.7713 9.46C46.7713 8.94 46.8747 8.48333 47.0813 8.09C47.288 7.69 47.5747 7.38 47.9413 7.16C48.308 6.93333 48.7313 6.82 49.2113 6.82C49.678 6.82 50.078 6.92333 50.4113 7.13C50.7447 7.33 51.0013 7.62 51.1813 8C51.368 8.38 51.4613 8.83 51.4613 9.35V9.54H47.8713L47.8813 8.87H50.7213L50.3813 9.21C50.388 8.72333 50.2913 8.35333 50.0913 8.1C49.898 7.84667 49.6147 7.72 49.2413 7.72C48.8413 7.72 48.5313 7.86333 48.3113 8.15C48.0913 8.43 47.9813 8.83333 47.9813 9.36C47.9813 9.96 48.1047 10.4033 48.3513 10.69C48.598 10.97 48.9713 11.11 49.4713 11.11C49.7447 11.11 50.0113 11.0667 50.2713 10.98C50.538 10.8867 50.7847 10.7533 51.0113 10.58L51.3713 11.44ZM57.3498 12H56.1198V10.72L56.2398 10.9C56.1265 11.2733 55.9098 11.5633 55.5898 11.77C55.2765 11.97 54.9065 12.07 54.4798 12.07C54.0398 12.07 53.6498 11.9633 53.3098 11.75C52.9765 11.53 52.7165 11.22 52.5298 10.82C52.3432 10.42 52.2498 9.95667 52.2498 9.43C52.2498 8.90333 52.3398 8.44333 52.5198 8.05C52.7065 7.65667 52.9698 7.35333 53.3098 7.14C53.6498 6.92667 54.0398 6.82 54.4798 6.82C54.9065 6.82 55.2765 6.92667 55.5898 7.14C55.9098 7.35333 56.1265 7.64 56.2398 8L56.0998 8.15V4.64H57.3498V12ZM54.8198 11.11C55.2332 11.11 55.5532 10.9667 55.7798 10.68C56.0065 10.3933 56.1198 9.98333 56.1198 9.45C56.1198 8.92333 56.0065 8.51667 55.7798 8.23C55.5532 7.94333 55.2332 7.8 54.8198 7.8C54.3998 7.8 54.0732 7.94333 53.8398 8.23C53.6065 8.51 53.4898 8.91 53.4898 9.43C53.4898 9.96333 53.6065 10.3767 53.8398 10.67C54.0732 10.9633 54.3998 11.11 54.8198 11.11ZM61.4454 12V4.64H62.6954V8.15L62.5854 8C62.6921 7.64 62.9021 7.35333 63.2154 7.14C63.5287 6.92667 63.8987 6.82 64.3254 6.82C64.7721 6.82 65.1621 6.92667 65.4954 7.14C65.8287 7.35333 66.0921 7.65667 66.2854 8.05C66.4787 8.44333 66.5754 8.90333 66.5754 9.43C66.5754 9.95667 66.4787 10.42 66.2854 10.82C66.0921 11.22 65.8254 11.53 65.4854 11.75C65.1521 11.9633 64.7654 12.07 64.3254 12.07C63.8987 12.07 63.5287 11.97 63.2154 11.77C62.9021 11.5633 62.6921 11.2733 62.5854 10.9L62.6954 10.72V12H61.4454ZM64.0054 11.11C64.4187 11.11 64.7387 10.9633 64.9654 10.67C65.1921 10.3767 65.3054 9.96333 65.3054 9.43C65.3054 8.91 65.1921 8.51 64.9654 8.23C64.7387 7.94333 64.4187 7.8 64.0054 7.8C63.5787 7.8 63.2521 7.94333 63.0254 8.23C62.8054 8.51667 62.6954 8.92333 62.6954 9.45C62.6954 9.98333 62.8054 10.3933 63.0254 10.68C63.2521 10.9667 63.5787 11.11 64.0054 11.11ZM67.4584 14.27L67.1784 13.31C67.4918 13.2433 67.7518 13.1633 67.9584 13.07C68.1651 12.9833 68.3351 12.87 68.4684 12.73C68.6084 12.59 68.7251 12.41 68.8184 12.19L69.1784 11.37L69.4984 10.91L71.1184 6.95H72.3584L70.0184 12.34C69.8251 12.78 69.6018 13.13 69.3484 13.39C69.0951 13.6567 68.8084 13.8567 68.4884 13.99C68.1751 14.1233 67.8318 14.2167 67.4584 14.27ZM69.2084 12.33L66.8784 6.95H68.1884L69.7784 10.91L69.2084 12.33Z"
        fill="#646464" />
    <path clip-rule="evenodd"
        d="M18.9547 40.7727C19.9928 39.9419 20.8854 38.9362 21.5898 37.796C22.6744 36.0401 23.2738 34.0279 23.3268 31.9648C23.3798 29.9016 22.8844 27.8613 21.8913 26.0521C20.8982 24.2429 19.4429 22.7295 17.6739 21.6665C15.9049 20.6034 13.8855 20.0287 11.8218 20.0011C9.75815 19.9734 7.72407 20.4937 5.92717 21.5089C4.13027 22.5241 2.63487 23.9978 1.59359 25.7798C0.58507 27.5056 0.0375003 29.4606 0.00185826 31.4571H0V45.4138H7.08251V31.5139C7.10764 30.7533 7.32171 30.0102 7.7064 29.3519C8.1157 28.6514 8.7035 28.0722 9.40981 27.6731C10.1161 27.2741 10.9157 27.0695 11.7268 27.0804C12.538 27.0913 13.3318 27.3172 14.0271 27.7351C14.7225 28.1529 15.2945 28.7478 15.6849 29.4589C16.0752 30.1701 16.2699 30.972 16.2491 31.783C16.2283 32.594 15.9927 33.3849 15.5663 34.0751C15.1873 34.6886 14.6697 35.203 14.0565 35.5777L9.58221 30.8322V45.4139H23.3306L18.9547 40.7727Z"
        fill="#1FBAD6" fill-rule="evenodd" />
    <path
        d="M26.9374 30.9728H29.1942V32.1185C29.8539 31.239 30.8261 30.7992 32.1107 30.7992V32.3616C31.1849 32.3616 30.4731 32.5583 29.9754 32.9518C29.4778 33.3453 29.229 33.9066 29.229 34.6357V40H26.9374V30.9728ZM39.7048 37.7085L40.3818 39.132C39.9421 39.4445 39.4097 39.6991 38.7847 39.8958C38.1598 40.081 37.5522 40.1736 36.9619 40.1736C35.712 40.1736 34.6935 39.7454 33.9065 38.889C33.1311 38.0325 32.7434 36.8983 32.7434 35.4864C32.7434 34.0744 33.1311 32.946 33.9065 32.1012C34.682 31.2332 35.7062 30.7992 36.9793 30.7992C37.7315 30.7992 38.397 30.967 38.9757 31.3026C39.5659 31.6267 39.9883 32.0549 40.243 32.5873C40.8448 33.8256 40.9779 35.0292 40.6422 36.1982H35.087C35.1565 36.9388 35.3764 37.5291 35.7467 37.9689C36.1171 38.3971 36.5916 38.6112 37.1702 38.6112C38.0382 38.6112 38.8831 38.3103 39.7048 37.7085ZM35.0697 35.0524H38.4896C38.5127 34.2307 38.3796 33.5768 38.0903 33.0907C37.801 32.6046 37.3786 32.3616 36.823 32.3616C35.7814 32.3616 35.197 33.2585 35.0697 35.0524ZM42.2639 39.7396V26.98H44.5554V38.2466C44.5554 38.5823 44.8274 38.7501 45.3714 38.7501V39.8438C45.001 40.0637 44.5207 40.1736 43.9305 40.1736C43.2939 40.1736 42.7384 40.0289 42.2639 39.7396ZM46.2212 35.4864C46.2212 34.0513 46.6089 32.9113 47.3843 32.0665C48.1597 31.2216 49.2071 30.7992 50.5265 30.7992C51.8343 30.7992 52.8759 31.2216 53.6513 32.0665C54.4383 32.9229 54.8318 34.0629 54.8318 35.4864C54.8318 36.9099 54.4383 38.0499 53.6513 38.9063C52.8759 39.7512 51.8343 40.1736 50.5265 40.1736C49.2071 40.1736 48.1597 39.7512 47.3843 38.9063C46.6089 38.0615 46.2212 36.9215 46.2212 35.4864ZM49.0509 37.7779C49.4096 38.3334 49.9015 38.6112 50.5265 38.6112C51.1283 38.6112 51.6144 38.3334 51.9847 37.7779C52.3551 37.1992 52.5402 36.4354 52.5402 35.4864C52.5402 34.5374 52.3551 33.7793 51.9847 33.2122C51.6259 32.6451 51.1399 32.3616 50.5265 32.3616C49.9015 32.3616 49.4096 32.6451 49.0509 33.2122C48.6921 33.7562 48.5127 34.5142 48.5127 35.4864C48.5127 36.447 48.6921 37.2108 49.0509 37.7779ZM58.5394 33.7851L56.2478 33.6462C56.2478 32.7667 56.5777 32.0723 57.2373 31.563C57.897 31.0538 58.7882 30.7992 59.9108 30.7992C61.0103 30.7992 61.8667 31.0712 62.4801 31.6151C63.0935 32.1475 63.4002 32.894 63.4002 33.8545V38.1078C63.4002 38.536 63.6721 38.7501 64.2161 38.7501V39.8438C63.8457 40.0637 63.4465 40.1736 63.0182 40.1736C62.6942 40.1736 62.3991 40.0868 62.1329 39.9132C61.8783 39.7396 61.6989 39.5081 61.5947 39.2188C60.8077 39.8553 59.9166 40.1736 58.9213 40.1736C57.9954 40.162 57.2431 39.9248 56.6645 39.4618C56.0974 38.9873 55.8138 38.3739 55.8138 37.6217C55.8138 35.8857 57.029 34.9482 59.4594 34.8093L61.1086 34.6878V33.8545C61.1086 33.38 60.9929 33.0155 60.7614 32.7609C60.5415 32.4947 60.2348 32.3616 59.8414 32.3616C59.4479 32.3616 59.1296 32.4947 58.8866 32.7609C58.6551 33.0155 58.5394 33.3569 58.5394 33.7851ZM61.1086 38.0036V35.8683L59.8587 35.9551C58.6898 36.0477 58.1054 36.5048 58.1054 37.3266C58.1054 37.7085 58.2442 38.021 58.522 38.264C58.8113 38.4955 59.1875 38.6112 59.6504 38.6112C60.1828 38.6112 60.6688 38.4087 61.1086 38.0036ZM71.116 26.98H73.3728V38.1078C73.3728 38.536 73.639 38.7501 74.1714 38.7501V39.8438C73.8126 40.0637 73.4191 40.1736 72.9909 40.1736C72.6553 40.1736 72.3544 40.0868 72.0882 39.9132C71.8336 39.7396 71.66 39.5081 71.5674 39.2188C70.8267 39.8553 69.9703 40.1736 68.9981 40.1736C67.7597 40.1505 66.7876 39.7222 66.0816 38.889C65.3641 38.0325 65.0053 36.8983 65.0053 35.4864C65.0053 34.0513 65.3351 32.9171 65.9948 32.0838C66.6545 31.239 67.5572 30.8108 68.703 30.7992C69.7214 30.7992 70.5258 31.2216 71.116 32.0665V26.98ZM71.0813 37.9342V34.5663C71.0813 33.8951 70.9135 33.3627 70.5779 32.9692C70.2538 32.5641 69.8198 32.3616 69.2759 32.3616C68.6625 32.3616 68.1764 32.6451 67.8176 33.2122C67.4704 33.7677 67.2968 34.5258 67.2968 35.4864C67.2968 36.447 67.4762 37.2108 67.835 37.7779C68.1937 38.3334 68.6798 38.6112 69.2932 38.6112C70.0223 38.6112 70.6184 38.3855 71.0813 37.9342ZM75.4582 39.7396V26.98H77.7497V38.2466C77.7497 38.5823 78.0217 38.7501 78.5656 38.7501V39.8438C78.1953 40.0637 77.715 40.1736 77.1248 40.1736C76.4882 40.1736 75.9327 40.0289 75.4582 39.7396ZM83.7902 36.4412L85.6651 30.9728H87.9392L84.1027 41.4582C83.7555 42.442 83.2694 43.1942 82.6444 43.715C82.0195 44.2474 81.3135 44.5136 80.5265 44.5136C80.0057 44.5136 79.5254 44.4037 79.0856 44.1838V43.0901C79.9652 43.0901 80.6133 42.9686 81.03 42.7255C81.4582 42.4825 81.7938 42.0369 82.0368 41.3888L82.6097 39.8958H81.9153L81.2209 37.587L78.9294 30.9728H81.273L83.0437 36.4238C83.1595 36.8868 83.2694 37.3728 83.3736 37.8821L83.7902 36.4412Z"
        fill="black" />
</svg>
