<svg fill="none" height="28" viewBox="0 0 28 28" width="28" xmlns="http://www.w3.org/2000/svg">
    <path
        d="M13.9999 2.3335C10.9433 2.3335 8.45825 4.8185 8.45825 7.87516C8.45825 10.8735 10.8033 13.3002 13.8599 13.4052C13.9533 13.3935 14.0466 13.3935 14.1166 13.4052C14.1399 13.4052 14.1516 13.4052 14.1749 13.4052C14.1866 13.4052 14.1866 13.4052 14.1983 13.4052C17.1849 13.3002 19.5299 10.8735 19.5416 7.87516C19.5416 4.8185 17.0566 2.3335 13.9999 2.3335Z"
        fill="#0898A0" opacity="0.4" />
    <path
        d="M19.9266 16.5084C16.6716 14.3384 11.3633 14.3384 8.08495 16.5084C6.60329 17.5 5.78662 18.8417 5.78662 20.2767C5.78662 21.7117 6.60329 23.0417 8.07329 24.0217C9.70662 25.1184 11.8533 25.6667 14 25.6667C16.1466 25.6667 18.2933 25.1184 19.9266 24.0217C21.3966 23.03 22.2133 21.7 22.2133 20.2534C22.2016 18.8184 21.3966 17.4884 19.9266 16.5084Z"
        fill="#0898A0" />
</svg>
