<svg fill="none" height="28" viewBox="0 0 28 28" width="28" xmlns="http://www.w3.org/2000/svg">
    <path
        d="M11.6666 10.5932V7.2915C11.1883 7.2915 10.7916 6.89484 10.7916 6.4165V3.7915H8.16658C3.02159 3.7915 1.45825 5.35484 1.45825 10.4998V11.0832C1.45825 11.5615 1.85492 11.9582 2.33325 11.9582C3.45325 11.9582 4.37492 12.8798 4.37492 13.9998C4.37492 15.1198 3.45325 16.0415 2.33325 16.0415C1.85492 16.0415 1.45825 16.4382 1.45825 16.9165V17.4998C1.45825 22.6448 3.02159 24.2082 8.16658 24.2082H10.7916V21.5832C10.7916 21.1048 11.1883 20.7082 11.6666 20.7082V17.4065C11.1883 17.4065 10.7916 17.0098 10.7916 16.5315V11.4682C10.7916 10.9898 11.1883 10.5932 11.6666 10.5932Z"
        fill="#969696" />
    <path
        d="M23.6251 14.5832C23.6251 15.7032 24.5468 16.6248 25.6667 16.6248C26.1451 16.6248 26.5418 17.0215 26.5418 17.4998C26.5418 22.6448 24.9784 24.2082 19.8334 24.2082H12.5417V21.5832C12.5417 21.1048 12.1451 20.7082 11.6667 20.7082V17.4065C12.1451 17.4065 12.5417 17.0098 12.5417 16.5315V11.4682C12.5417 10.9898 12.1451 10.5932 11.6667 10.5932V7.2915C12.1451 7.2915 12.5417 6.89484 12.5417 6.4165V3.7915H19.8334C24.9784 3.7915 26.5418 5.35484 26.5418 10.4998V11.6665C26.5418 12.1448 26.1451 12.5415 25.6667 12.5415C24.5468 12.5415 23.6251 13.4632 23.6251 14.5832Z"
        fill="#969696" opacity="0.4" />
</svg>
