<svg fill="none" height="28" viewBox="0 0 29 28" width="29" xmlns="http://www.w3.org/2000/svg">
    <path
        d="M11.8333 10.5932V7.2915C11.355 7.2915 10.9583 6.89484 10.9583 6.4165V3.7915H8.33333C3.18833 3.7915 1.625 5.35484 1.625 10.4998V11.0832C1.625 11.5615 2.02167 11.9582 2.5 11.9582C3.62 11.9582 4.54167 12.8798 4.54167 13.9998C4.54167 15.1198 3.62 16.0415 2.5 16.0415C2.02167 16.0415 1.625 16.4382 1.625 16.9165V17.4998C1.625 22.6448 3.18833 24.2082 8.33333 24.2082H10.9583V21.5832C10.9583 21.1048 11.355 20.7082 11.8333 20.7082V17.4065C11.355 17.4065 10.9583 17.0098 10.9583 16.5315V11.4682C10.9583 10.9898 11.355 10.5932 11.8333 10.5932Z"
        fill="#0898A0" />
    <path
        d="M23.7918 14.5832C23.7918 15.7032 24.7135 16.6248 25.8335 16.6248C26.3118 16.6248 26.7085 17.0215 26.7085 17.4998C26.7085 22.6448 25.1452 24.2082 20.0002 24.2082H12.7085V21.5832C12.7085 21.1048 12.3118 20.7082 11.8335 20.7082V17.4065C12.3118 17.4065 12.7085 17.0098 12.7085 16.5315V11.4682C12.7085 10.9898 12.3118 10.5932 11.8335 10.5932V7.2915C12.3118 7.2915 12.7085 6.89484 12.7085 6.4165V3.7915H20.0002C25.1452 3.7915 26.7085 5.35484 26.7085 10.4998V11.6665C26.7085 12.1448 26.3118 12.5415 25.8335 12.5415C24.7135 12.5415 23.7918 13.4632 23.7918 14.5832Z"
        fill="#0898A0" opacity="0.4" />
</svg>
