<svg fill="none" height="28" viewBox="0 0 28 28" width="28" xmlns="http://www.w3.org/2000/svg">
    <path
        d="M17.4999 7.17525H6.99992C4.42159 7.17525 2.33325 9.26359 2.33325 11.8419V7.6302C2.33325 5.2502 4.25825 3.3252 6.63825 3.3252H13.1949C15.5749 3.3252 17.4999 4.79525 17.4999 7.17525Z"
        fill="#969696" />
    <path
        d="M20.3932 14.2331C19.8099 14.8048 19.5299 15.6681 19.7633 16.5431C20.0549 17.6281 21.1283 18.3165 22.2483 18.3165H23.3332V20.0081C23.3332 22.5865 21.2449 24.6748 18.6666 24.6748H6.99992C4.42158 24.6748 2.33325 22.5865 2.33325 20.0081V11.8415C2.33325 9.26314 4.42158 7.1748 6.99992 7.1748H18.6666C21.2332 7.1748 23.3332 9.2748 23.3332 11.8415V13.5331H22.0732C21.4199 13.5331 20.8249 13.7898 20.3932 14.2331Z"
        fill="#969696" opacity="0.4" />
    <path
        d="M25.6666 14.7232V17.1266C25.6666 17.7799 25.1299 18.3166 24.4649 18.3166H22.2132C20.9532 18.3166 19.7983 17.3949 19.6933 16.1349C19.6233 15.3999 19.9032 14.7116 20.3932 14.2332C20.8249 13.7899 21.4199 13.5332 22.0732 13.5332H24.4649C25.1299 13.5332 25.6666 14.0699 25.6666 14.7232Z"
        fill="#969696" />
    <path
        d="M15.1667 13.8833H8.16675C7.68841 13.8833 7.29175 13.4866 7.29175 13.0083C7.29175 12.53 7.68841 12.1333 8.16675 12.1333H15.1667C15.6451 12.1333 16.0417 12.53 16.0417 13.0083C16.0417 13.4866 15.6451 13.8833 15.1667 13.8833Z"
        fill="#969696" />
</svg>
