<svg fill="none" height="28" viewBox="0 0 28 28" width="28" xmlns="http://www.w3.org/2000/svg">
    <path
        d="M17.5 7.17525H7.00004C4.42171 7.17525 2.33337 9.26359 2.33337 11.8419V7.6302C2.33337 5.2502 4.25838 3.3252 6.63838 3.3252H13.195C15.575 3.3252 17.5 4.79525 17.5 7.17525Z"
        fill="#0898A0" />
    <path
        d="M20.3933 14.2331C19.81 14.8048 19.53 15.6681 19.7634 16.5431C20.055 17.6281 21.1284 18.3165 22.2484 18.3165H23.3334V20.0081C23.3334 22.5865 21.245 24.6748 18.6667 24.6748H7.00004C4.42171 24.6748 2.33337 22.5865 2.33337 20.0081V11.8415C2.33337 9.26314 4.42171 7.1748 7.00004 7.1748H18.6667C21.2334 7.1748 23.3334 9.2748 23.3334 11.8415V13.5331H22.0734C21.42 13.5331 20.825 13.7898 20.3933 14.2331Z"
        fill="#0898A0" opacity="0.4" />
    <path
        d="M25.6667 14.7232V17.1266C25.6667 17.7799 25.13 18.3166 24.465 18.3166H22.2134C20.9534 18.3166 19.7984 17.3949 19.6934 16.1349C19.6234 15.3999 19.9034 14.7116 20.3934 14.2332C20.825 13.7899 21.42 13.5332 22.0734 13.5332H24.465C25.13 13.5332 25.6667 14.0699 25.6667 14.7232Z"
        fill="#0898A0" />
    <path
        d="M15.1666 13.8838H8.16663C7.68829 13.8838 7.29163 13.4871 7.29163 13.0088C7.29163 12.5305 7.68829 12.1338 8.16663 12.1338H15.1666C15.645 12.1338 16.0416 12.5305 16.0416 13.0088C16.0416 13.4871 15.645 13.8838 15.1666 13.8838Z"
        fill="#0898A0" />
</svg>
